<?xml version="1.0" encoding="UTF-8"?>
<svg id="a" data-name="Layer 1" xmlns="http://www.w3.org/2000/svg" viewBox="0 0 911.45991 923.77234">
  <path d="m784.18847,614.63387c2.11469-.13177,4.20624-.60291,6.31744-.83765,1.15436-.1283,2.41254-.37439,3.47852-.06561,4.90381,1.42072,8,.67222,14.21667.22222,3.46346-.17864,15.41667-.86667,12.80556,1.55556-4.23761,2.2464-19.81149,3.3025-22.13333,4.53333-4.32703-.21545-7.84087.69737-11.08892.32212-3.07483-.35516-3.85109.8316-7.49702.14202-1.58478.33496-3.80878.80493-6.02496,1.27332q.36694,2.53351,3.61963,5.48773c1.7337-.28206,3.96216-.64753,6.12532-.99341.6211-.09931,1.24756-.16143,1.87612-.18473,9.20587-.34123,18.41422-.63393,27.6188-1.01772,3.77966-.15753,7.56494.55402,11.3623-.73096,1.61469-.54633,10.7111-.61385,12.65318-1.25393.23627-.07788.78583.79492,1.69666,1.76843-5.88214-.4975-17.09666,3.63157-23.56332,2.83157-3.99304.57141-8.23302.54301-11.46667.93333-5.86755.70813-9.61251.97829-15.46688,1.7776-1.54541.21094-2.99921,1.09296-4.69415,1.74323.54596,1.14758.88159,1.85303,1.43701,3.02045,1.97174-.27887,4.02374-.56909,6.77142-.95764,2.14203.79187,4.8678,1.19592,7.93884.08917,2.07141-.74652,4.61719-.1311,6.94739-.21655,2.95337-.1084,5.92407.43304,8.84918-.81329,1.05225-.44836,2.6593-.07874,3.84473.36621,2.83014,1.06213,5.67175,1.58862,8.7074,1.5553,1.38019-.0152,2.76898.74762,4.5119,1.26349-3.01105,3.64563-8.11774.13641-10.73267,4.45026,1.90576.4007,3.76111.07947,5.56073.20135,1.94824.1319,3.8941.2981,6.95563.53595,1.23846-.32874,10.58602-1.09724,13.12502-1.77107,2.52631.8407,5.97186.83347,8,3.37778-1.15338,1.32147-2.21698,2.54004-3.27679,3.75439-7.3783,2.16034-22.55709,4.51854-30.23629,4.43187-4.43243-.05005-8.85876-.39069-13.36719.54486-3.1709.65802-6.69373-.37994-10.12054-.66571-.96136.65363-1.90857,1.29767-3.00793,2.0451-.85913,0-1.85645-.02521-2.85211.00378-11.2713.32843-22.58337.20184-33.7962,1.19464-5.62701.49823-11.2674.19391-16.81927.88544-10.76758,1.34131-21.55261.65045-32.32599.95459-4.17041.11774-8.32483.75336-12.49579.914-4.3269.16669-8.67017-.0885-12.99707.07812-6.77216.2608-13.53674.72131-20.99133,1.13525-2.48053,1.37207-5.63702,2.87872-9.18073.89569-.25909-.14502-.66022-.08588-.98785-.05145-5.55023.58472-11.0993,1.18073-17.47516,1.86249-.75781-.31201-2.27118-.93506-3.41431-1.40576-13.00928.65326-25.7193,1.2915-40.45996,2.03168-2.33575-.51788-12.10986-.08728-16.88416,1.29309-4.88647-1.36407-9.91229-1.14569-14.77002-.40009-1.9743.30316-4.00488-.39508-5.61426.29608-1.69817.72942-3.17578.59918-4.75715.37602-.3161-.04461-.83641-.0768-1.15564-.07682-6.59502-.00043-13.18405-.00031-20.11888-.00031-2.95941,2.71411-6.69574,1.54352-10.33807,1.32715-1.75049-.104-3.51221-.01788-5.26886.24255-4.31073-1.26263-5.41821-.17371-13.04462,1.43457-1.90479-.66174-3.91919-1.36151-5.93359-2.06128-8.84338.23669-17.53497,3.63373-27.28864.94995-3.46002,1.20032-7.54785,2.94263-11.80353,4.02521-8.05243,2.04852-16.28851,2.56915-24.88934,1.91071-1.51251-1.42792-3.19727-3.01849-4.97882-4.70038-4.80078-.33435-9.60522.02777-14.39563.77966-.65338.10254-1.45456.31213-1.97318.04944-2.75803-1.3974-5.43808.23865-8.15936.0824-2.65753-.15271-5.33832-.14624-7.99615.00848-4.32117.25153-8.6073,1.06616-12.95285.92938-1.62033-.05096-3.23294-.34552-4.59354-.5-2.16144.19159-4.10269.44562-6.0509.52228-9.26889.36475-18.54163.63696-27.80847,1.04504-2.44525.10767-5.07129,1.30621-7.26239.71014-2.91342-.79248-5.46988-.79364-7.31488.03943-7.88486-.70984-14.82538.58911-21.80042.68237h-9.77124c-2.06912-.08929-5.4487-.94794-8.41412-.18884-4.01123,1.02692-7.92661.61469-11.86273.66382-8.2637.10315-16.45914.66986-24.63071,1.94757-2.02368.31641-4.20593-.38123-6.39923-.62195-2.48727.2356-5.13037.30072-7.70132.76538-6.73932,1.21808-13.5578.56317-20.30469,1.09534-3.68109.29028-7.35135,1.60577-10.85864,2.91022-2.49188.92676-4.57935,1.15778-7.11819.07843-3.13812-1.33405-6.53162-2.06738-9.66415-3.01465-4.52649,1.46893-9.01069,1.28467-13.32766.43758-3.25259-.63823-6.57903-.50808-9.82676.15445-1.28462.26206-2.64592.27273-3.96725.28559-4.83276.0473-9.67038-.09973-14.49808.06464-3.61099.12286-7.37346,1.43054-10.77632.75-5.48897-1.0979-10.91083-.56995-16.35423-.74921-1.82476-.06011-3.66334.29931-6.21152.62563-.76388.09782-1.54512.05171-2.29107-.1397l-3.47028-.89045c-1.37852-.35372-2.80711-.46688-4.22576-.35347-7.95203.6357-15.57725,2.43209-24.31644,1.18316-.26537.04456-1.70226.4184-3.15628.50543-4.93797.29559-9.86139-.18207-14.84427.8111-1.40634.2803-2.92651-.01061-4.43197-.4261-2.55806-.70598-5.22386-.91677-7.8605-.61647-.87656.09983-1.73871.18472-2.60282.23733-3.07375.18689-6.13327-.35901-9.24115-.04547-2.9697.29956-5.99402.10559-8.99311.05548-4.96854-.08295-9.80022.81696-14.64656,1.77234-2.10026.41397-4.25707.54116-7.00437.78576-1.23121.10962-2.46914-.18221-3.51613-.83923l-2.07548-1.30243c-.68936-.43271-.75962-1.00803-.42377-1.36704,1.05597-1.12878,1.97645-2.1127,2.84645-3.04266.49489-.529,1.14157-.88288,1.85411-1.01347,1.45548-.26675,4.01803-.73704,5.49795-1.00867.73789-.13544,1.49592.00699,2.13576.39868l.28057.17175c1.34023.82043,2.88688,1.25429,4.45828,1.25573,6.37893.00586,12.5979.02873,18.81604-.0319,1.45633-.01416,2.92332-.35217,4.35992-.65985,1.73531-.37171,3.31644-.41998,5.10778-.08924,2.14535.3961,4.35018.33635,6.50465-.00669l1.99359-.31742c.80226-.12777,1.28433-.27467,1.74273-.48598l.5817-.26808c1.33601-.61571,2.80444-.88867,4.27247-.79418,6.60529.42515,12.32571.7933,18.8133,1.21087,1.91646-.15924,4.68716-.50458,7.46645-.60028,11.10007-.38245,22.20769-.58051,33.30135-1.08997,3.04671-.14001,5.91945-1.08344,9.15665-.31433,2.76245.65637,5.37506-.88495,9.67725-3.39404,1.04693-.61059,2.10219-1.20688,3.13346-1.78206,2.7371-1.52659,5.80327-2.36758,8.93657-2.43547.70332-.01524,1.39574-.04853,2.07594-.12408,1.58568-.17612,1.52378-2.51412-.07034-2.5787-3.74771-.15182-7.78373.06903-10.52115.59842-1.12874.21829-2.27785.32297-3.42741.33724-3.62131.04495-7.24514-.03865-10.86621.03172-16.10329.31305-32.20581.664-48.30885.99036-1.43614.02914-2.87315.01553-4.43683.00842-.84246-.00383-1.65777-.30582-2.29948-.85167l-.94151-.80086c-.73447-.62475-.7092-1.76665.05219-2.35829l.9435-.73315c.91043-.70745,2.01638-.98239,3.07741-.74817.5054.11156.97884.19549,1.45291.1993,5.99947.04779,12.03432.44312,17.99292-.05255,18.97153-1.57812,37.96535-.61426,56.94553-.91833l.05457-.00086c3.6953-.05816,7.11471-2.00863,9.02173-5.17438,3.81451-6.33228,5.74437-12.99242,4.67978-20.3182-.55844-3.8428-4.12036-6.57282-7.97239-6.08207-1.80545.23002-3.57234.65452-5.34462,1.06353-1.70041.39242-3.45834.32961-5.16494-.03499-5.01286-1.07095-9.62483,2.03779-14.54252,2.62003-1.4093-.19119-1.94091-.14515-3.21476-.27931-.38083-.04011-.90507-.01492-1.26667.11111-.33849.11797-.70447.05683-1.4-.06667-.55188-.46358-.61817-.57395-1.05389-1.07219-.56006-.64043-.7969-1.50581-.63935-2.34186l.87864-4.66248c.20742-1.10069.84322-2.09287,1.79313-2.68634,1.84852-1.15488,3.80775-1.33696,5.77659-.81283,1.61398.42966,3.31469.40256,4.96256.13042,5.13662-.84832,10.19074-.1143,15.18794-.40804,2.27838-.13397,4.54933-.39429,6.81259-.45789h11.78566c3.03405,0,5.81048-1.70563,7.18191-4.41204l.02642-.05213c4.94084-9.65315,9.62963-19.41899,13.65069-29.49636.12319-.30873.28483-.6011.47392-.87447,3.6018-5.20713,5.18399-11.35922,7.90944-16.9819,3.66632-7.56384,6.82794-15.37061,10.34625-23.00854,1.7074-3.70654,3.85983-7.20752,5.58112-10.90833,1.87167-4.02399,3.45627-8.18066,5.20322-12.26361,2.19101-5.12079,4.42584-10.2229,6.62949-15.33826.91129-2.11548,1.66275-4.31122,2.72186-6.34827.9823-1.88947,2.27765-3.61609,3.66876-5.7774.44924-3.49195,2.01075-6.87051,3.82945-10.21719,1.1739-2.16016,2.9737-5.75797,4.04856-7.96908,3.48157-7.16201,6.98456-14.31374,10.4434-21.4867,1.62924-3.37878,3.20078-6.78577,4.76663-10.19458,3.75922-8.18396,7.51892-16.36786,11.24268-24.56793,4.43115-9.75793,8.53958-19.6756,13.33432-29.25049,3.24655-6.48315,6.03964-13.15857,9.21274-19.66519,1.68876-3.46291,3.00209-7.09455,4.67189-10.57807,1.21629-2.53742,3.1188-6.42586,4.29517-8.98202,2.90229-6.30643,5.84697-12.59379,8.7226-18.91256,3.19641-7.02353,6.31696-14.08191,9.55893-21.08423,1.60754-3.47211,3.41391-6.85223,5.18793-10.38879-.29849-.61337-.4407-1.33331-.87613-1.73676-7.78183-7.21011-14.82822-15.14948-22.42462-22.54538-7.52234-7.32379-14.99615-14.70776-22.21994-22.32278-2.91238-3.07016-5.10373-6.82437-7.66855-10.32919,3.33871-2.50375,6.66446-2.21216,9.88318-1.4025,2.69427.67776,5.50873,1.48532,7.82483,2.94275,6.40741,4.03195,13.78333,6.32272,19.74176,11.15976.87234.70819,2.35757.74902,3.58408.91782,4.67194.64282,8.86212,2.34119,12.59711,5.25903,2.59314,2.02585,5.32404,3.87531,8.58786,6.23297-.70731-1.2092-1.01352-1.99759-1.54022-2.58994-3.27222-3.67993-7.37277-6.88629-9.68738-11.08319-2.47723-4.49182-6.57867-7.40182-9.17737-11.66208-1.49377-2.44888-4.78653-3.46033-6.09195-6.29315-.27334-.59312-.55679-1.18157-.86781-1.82032-.49004-1.00641.16231-2.19539,1.27473-2.32005l1.26831-.14213c1.15739-.12944,1.83814-1.36589,1.33061-2.41408l-1.1119-1.64699c-1.6605-1.71171-1.87095-.93799-2.77836-3.37185-.14287-.38321.22877-.76059.61786-.6346,2.2173.71797,2.55096.91752,4.9605,2.09534,1.6004.78229,2.9155,1.87517,4.58377,1.81896,4.44501-.14981,7.40976,2.39944,10.48688,4.89627,6.04147,4.90216,12.29294,9.56131,17.51523,15.4071.68704.76904,1.85794,1.1058,3.12744,1.82581,16.22992-35.12527,33.02737-69.54413,46.95352-105.61282-.31772-1.28317-.70706-2.85559-.97986-3.95724,2.38855-2.77728,4.90503-4.99942,6.49536-7.75583,1.5076-2.61295,2.04468-5.78577,3.36304-9.78867-.39438-3.65509.65164-8.05534,4.11618-11.57657-1.66559-7.53093-3.42807-14.84824-4.86856-22.22841-1.06741-5.46907-1.71631-11.01984-2.07703-16.65372-1.00717-2.07812-2.01431-4.15623-3.17728-6.55583.98184-6.74152-1.15219-13.39453-2.5524-20.16418-.96179-4.65021-1.56491-9.37405-2.36008-14.0596-.27298-1.60876-.67203-3.19588-.95984-4.80249-.37546-2.09607-.6879-4.20335-1.0451-6.3028-.45889-2.69728-1.96183-12.39344-2.52714-15.6439.93903.4975,1.93018.6828,2.13467,1.18709,1.16498,2.87248,3.53502,9.94451,3.9543,12.95383.39945,2.86719.58759,5.72633,1.62106,8.46283.21813.57757.37375,1.17596.42508,1.79121.65508,7.85317,3.1248,15.35401,4.45917,23.07509.71503,4.13727,1.52362,8.25836,2.76056,12.36269.12268-2.20641.36214-1.60172.51275-4.31001.4957-.35759,1.37253-.9901,2.62256-1.89178,1.75528,1.72591,3.36145,3.30522,5.33499,5.24573-.84528-5.96268-1.6539-11.66696-2.50388-17.66287,1.87354.30888,3.07364,1.51579,3.4093,3.36752.86444,4.76845,3.72058,9.06203,3.34082,14.13135-.0285.38034.51611.80359,1.00775,1.51631,1.25793-4.44838-.61035-8.71413,1.3811-12.71541,1.17896-.16824,2.2923-.3271,3.19818-.45638.51941.3029.89734.40228,1.07892.64723,3.12646,4.21724,5.56464,8.9194,9.10742,12.85182.51819.57518.73871,1.47578.94495,2.26552,1.36041,5.20959,2.63013,10.44337,4.03912,15.63953.47009,1.73376,1.26202,3.38026,1.6759,4.46255.33582,3.39545.61029,6.17043.97632,9.87061-.53503,1.20857-1.45673,3.29063-2.68176,6.05792v4.25299c-.63947,1.34259-1.27869,2.68472-2,4.19911v6.80289c-.65649,1.38605-1.29279,2.72946-2.21033,4.66678,1.19684,11.64496,3.08331,23.68463,7.60101,35.19812.33679.36731.61633.82016,1.0188,1.08914,6.77863,4.53018,8.19904,11.89212,10.08124,19.01102.19934.75381.16614,1.67508.60089,2.2431,2.35278,3.07419,4.06732,6.51614,5.45349,10.06244,1.78638,4.57007,2.90118,9.34216,3.51276,14.25711.47461,3.81445,1.53729,7.55411,2.30127,11.33453,1.55573,7.69785,3.08234,15.40161,4.63312,23.10046.16125.80038.41217,1.58234.6095,2.37582,1.73853,6.99023,3.81042,13.90323,4.45355,21.13577.14203,1.59738,1.10291,3.10684,1.39703,4.70993.31458,1.71393.28644,3.49072.4696,6.12805,1.63281,5.63779,4.08459,12.09616,3.83276,19.92316-.12445-.17035.2652.36304.91077,1.24683-.15723.35199-.37299.91641-.65674,1.44424-.22314.41516-.53021.78522-.79889,1.17365-2.67291-.34787-3.06433-2.87964-4.37823-4.31699-1.55029-.82971-3.00092-1.60602-4.08014-2.18356-3.43097-7.16397-5.37512-14.53009-9.61621-20.93872v4.71506c1.0426,2.24484,3.07434,4.63779.85181,7.6456.64117.97903,1.25818,1.92123,1.88885,2.88431-.26898.79358-.52856,1.55936-.77985,2.30084.65845,1.38748,1.29272,2.72412,1.49023,3.14032.4696,3.92191.82056,6.85272,1.21814,10.1734-.39862.41745-1.04346,1.09277-1.69629,1.77646-6.22778-3.02396-9.06897-8.22287-10.33063-14.37918-.81909-3.99649-3.09906-7.5072-3.55249-11.60498-.04553-.41119-.93915-.72855-2.05103-1.53113-.07153,2.24466-.42676,3.89975-.12164,5.42249,1.50146,7.49399,1.90277,15.21472,4.2934,22.50909.93787,2.86206.39685,5.52228.54645,7.82196-1.65668,2.04099-3.21881,1.90942-5.16571,1.1835-.84369-2.76929-4.89185-4.4292-3.41492-7.95706-1.11078-4.50375-2.04431-8.64011-3.15948-12.7269-1.63562-5.99426-3.60181-11.88919-4.5661-18.0683-.73004-4.67798-1.8324-9.30096-2.85541-13.92932-1.27045-5.74786-2.65918-11.46954-3.93268-17.2168-.3703-1.67154-.44861-3.40622-.78491-5.08716-1.25226-6.25919-2.61395-12.49692-3.81659-18.76538-.61725-3.21729-.90131-6.49768-1.48663-9.7222-.73029-4.0231-1.61792-8.01764-2.43402-12.02524-.52191-2.56305-.95764-5.14771-1.60065-7.67984-.21301-.8389-.95215-1.54422-1.81976-2.87787-3.01517,6.63135-5.78754,12.67529-8.51385,18.7399-2.68945,5.98254-5.31219,11.99503-8.00116,17.97775-2.77255,6.16898-5.57928,12.3226-8.38995,18.47433-2.74374,6.00537-5.87524,11.86472-8.16702,18.0368-2.33234,6.28125-6.71869,11.70679-7.96255,18.37003,5.80652,5.51312,11.88028,10.31049,16.70859,16.13947,4.74106,5.7236,11.48471,9.55063,15.16498,16.28198-5.59937-1.97852-9.34995-7.22409-15.50381-8.0246,1.29889,2.10321,2.14417,4.17737,4.27066,5.80841,3.57852,2.74481,6.47672,6.37662,10.26532,10.25363,6.46454.41843,11.49185,5.27975,16.87277,9.56647,3.86389,3.07816,6.42668,6.98148,10.20274,10.15872,2.98996,2.5159,17.46556,16.4093,16.2,17.86667-.1466.16882-1.57856.89766-1.8.86667-9.32544-1.30539-16.67287-13.675-22.48889-14.02222-2.86957,3.48413,8.46037,18.69148,5.76084,23.73841-.09319.17421-.19483.3439-.30402.50973-2.15186,3.26787-6.77154,3.81861-9.8257,1.37289-.76108-.60946-1.49709-1.24208-2.18693-1.92158-4.6062-4.53741-9.00867-9.28189-13.48523-13.95059-1.72556-1.79962-3.5051-3.55621-5.11459-5.45569-1.34534-1.58777-2.47879-3.3551-4.35272-5.93228-3.48264-1.66522-7.44394-4.56165-10.93097-8.19873-1.55988-1.62692-3.71301-2.68509-6.00812-4.2887-.91998.97882-1.69092,1.79904-2.31659,2.46472.36404,4.57834,3.47937,6.86111,6.27274,9.01492,2.61191,2.01389,4.98953,4.17468,7.30634,6.49557,1.85284,1.85623,4.11115,3.30856,6.19513,4.93289.90631.70633,1.9686,1.26825,2.71841,2.11081,6.0238,6.76901,13.37335,12.07825,19.93295,18.2511,1.66266,1.56464,2.95276,3.52509,4.3703,5.25043-.01166,5.0899-.58844,6.2735-4.57257,8.89465-2.18823-1.66132-4.71838-3.22107-6.79712-5.24463-3.14743-3.06384-5.90027-6.52917-8.97766-9.6702-1.83914-1.8772-4.06714-3.36829-5.96252-5.19656-3.7179-3.58615-7.25815-7.35776-11.00699-10.91006-1.89383-1.79453-4.08258-3.27771-6.05597-4.98376-2.18845-1.92599-4.49707-3.73398-6.5343-5.8085-2.35486-2.39802-4.37459-5.12895-6.74363-7.50864-1.57464-1.58172-3.42554-2.86464-5.4176-3.87113-2.92772-1.47922-6.02561-2.618-9.46512-4.07564-4.11899,9.01312-8.21494,17.97498-12.31015,26.93723-2.12537,4.65128-4.23694,9.3089-6.37671,13.95355-3.79706,8.24182-7.45547,16.5528-11.47849,24.68317-2.25449,4.55621-5.12439,8.80798-7.9729,13.63013-.03558.61749-.10233,1.776-.15491,2.68811-2.43655,4.31494-4.66922,8.46515-6.02985,13.03467-.27994.94019-.60272,1.99585-1.24545,2.67841-3.51373,3.73132-4.68015,8.73212-6.30847,13.21033-2.32138,6.38422-5.02686,12.52795-8.11319,18.51947-3.76816,7.31506-6.32504,15.1333-10.0014,22.78638-5.54224,4.6535-4.9277,12.24902-8.26675,18.88947,1.37689-.35895,2.242-.36365,2.82367-.77203,3.63095-2.54962,7.23526-5.14081,10.77689-7.81293,3.5531-2.68091,7.0491-5.43964,10.51379-8.23413,1.11099-.89606,1.97208-2.1004,3.07605-3.00726,1.10965-.91144,2.32138-1.73798,3.59088-2.40729,2.73676-1.44287,5.77274-2.23199,7.41272-5.43292.73798-1.44043,2.64029-2.82294,4.24207-3.16486,2.90295-.61975,4.41708-2.60565,6.14899-4.54773,1.91587-2.14843,3.9344-4.15786,6.71298-4.8539.97905-.24525,1.88248-.72722,2.54227-1.49102l.1993-.23071c1.37645-1.59343,3.17451-2.7194,5.12711-3.50743,1.601-.64613,3.04838-1.82997,4.46109-3.04603,2.17615-1.87311,4.67569-2.9248,7.39902-3.78473,1.96225-.61963,3.73981-1.93207,5.48776-3.10278,5.73682-3.84241,10.57828-8.88818,16.81802-12.10748,3.03094-1.56378,5.60538-4.01343,8.38266-6.06714.66422-.49115,1.2764-1.36993,1.97552-1.43976,2.55511-.25513,3.54999-2.18628,4.19952-3.17224,3.89252-2.58704,7.03494-4.68738,10.18958-6.76929,3.84283-2.53613,7.7659-4.95764,11.52316-7.6142,3.22156-2.27789,6.27759-4.79315,9.35654-7.26599.46649-.37469.65955-1.0899,1.2392-2.10175-16.62646-17.52606-35.02896-33.25204-52.01202-51.45175,1.50723-.30261,2.48001-.82651,3.12311-.55869,1.3447.56,2.67899,1.36606,3.73206,2.37045,9.18558,8.76102,18.29071,17.60626,27.45496,26.38974,6.54288,6.27094,13.12625,12.49994,19.73059,18.70599.8269.77704,1.89288,1.29968,2.94446,2.00482,4.53601-1.81396,7.70978-5.52075,11.61407-8.16595,3.40228-2.30511,6.49713-4.99609,10.01202-7.20422,5.42322-3.40692,10.45172-7.46136,15.51001-11.41711,1.33838-1.04663,2.17303-2.73749,3.69263-4.72623,5.2439-1.60101,10.54547-4.77118,15.68689-8.4097,5.90057-4.17575,12.12939-7.8877,18.21661-11.79965,5.94946-3.82336,12.48975-6.98581,17.69385-11.64197,5.86993-5.25195,13.00281-8.42847,18.99109-13.38745,3.36206-2.78415,7.3736-4.85043,11.26587-6.9129,6.42413-3.4039,11.81604-8.24036,17.75201-12.31512,5.69727-3.91083,11.4444-7.74994,17.10425-11.71399,4.4433-3.112,8.77728-6.37964,13.17828-9.55258,2.40186-1.7316,4.77478-3.51657,7.27667-5.09366,9.8905-6.23456,19.10083-13.44055,28.74072-20.03391,7.33392-5.01611,14.40662-10.41241,21.6839-15.51355,7.54675-5.29004,15.19073-10.44183,22.81097-15.62656,3.11133-2.11688,6.27173-4.16153,9.57202-6.34647.96838.84241,1.81818,1.5817,3.08002,2.67944-1.20978,1.59723-2.18396,3.29117-3.5351,4.59424-5.01532,4.83719-10.27441,9.42612-15.1969,14.35321-2.42505,2.42731-4.31384,5.39041-6.64313,8.36362-1.01923.52542-2.34137,1.207-3.66345,1.88858.10736.13159.21472.26318.32208.39474-2.06415,1.81293-4.02063,3.76959-6.21295,5.41132-6.05768,4.53629-11.97046,9.33539-18.39166,13.29996-8.41229,5.19385-15.99774,11.46347-23.9859,17.20261-2.13843,1.53641-3.85602,3.65909-5.99628,5.19223-5.31445,3.80667-10.78833,7.38974-16.14868,11.13339-9.04218,6.31506-18.0769,12.64182-27.04871,19.05597-2.95081,2.10962-5.61743,4.61557-8.55737,6.742-3.73279,2.69983-7.58765,5.23404-11.43237,7.77518-7.40161,4.89197-15.13623,9.34409-22.15234,14.73419-5.20453,3.99841-10.86798,7.31775-15.9314,11.49344-1.86066,1.53455-4.0799,2.63443-6.2417,3.70239-1.28491,1.20822-2.4613,2.56467-3.87384,3.59839-5.43677,3.9787-10.96252,7.8356-16.42804,11.77536-3.20654,2.31128-6.29999,4.78473-9.56714,7.00439-1.60706,1.09192-3.49341,1.77271-5.67871,2.84906-6.76898,7.07837-16.97431,12.60707-25.04145,18.54891,1.5742,3.16371,1.5826,4.08852.7543,4.6378-.82707.54847-1.91694.50219-2.78268.01705l-2.0064-1.12435c-2.55035.8515-5.07202,1.9386-7.11835,4.00861-2.07182,2.09587-4.52748,3.51163-7.39885,4.49243-2.52012.86082-4.72052,2.48663-6.36487,4.58141-.97116,1.23718-2.22436,2.22949-3.66039,2.88781l-2.54779,1.16807c-2.01839.92536-3.79765,2.30652-5.18033,4.04386-2.34345,2.94455-5.97475,4.35014-9.67244,5.76243-.87858.33556-1.69009.82079-2.40111,1.43637-5.20997,4.5106-10.44246,9.10398-15.78857,13.56109-1.21573,1.01355-2.91278,1.44244-4.37216,2.17242-3.97195,1.987-8.69153,3.01416-11.37991,6.79767-3.34802,4.71179-8.37109,7.20142-12.72162,10.54541-4.68744,3.60297-9.85693,6.57275-14.69919,9.98474-1.14764.80865-1.99207,2.18964-2.69278,3.4632-1.89832,3.45007-4.10391,6.47986-6.94571,9.36884-2.73056,2.77582-5.2886,6.51056-5.68161,11.76642,10.65407-6.6054,22.44025-15.47766,33.75298-21.50337.1962-.1045.39608.13997.25421.3111-1.86118,2.24518-6.03055,7.71675-7.10229,8.42099-7.15643,4.70276-11.01431,8.28112-18.02582,13.18042-2.92099,2.04102-5.6308,4.38257-8.46307,6.55292-2.79388,2.14081-5.00692,2.7833-6.12866,5.7952-.9671,2.59662-2.22348,4.71619-4.13986,6.61328-3.76907,3.73108-7.66693,7.25873-12.42386,9.74622-2.09879,1.0976-3.09891,2.71228-4.19077,5.66669-3.08829,2.12213-5.94107,4.39392-9.07385,6.17249-7.31851,4.15509-14.8371,7.84937-23.89767,6.96698-1.09628-.91229-2.34198-1.94891-4.15442-3.45721-.436.77594-.93066,1.31818-1.05756,1.93591-.96582,4.70239-3.31323,8.86047-5.21133,13.18182-1.53751,3.50037-2.61029,7.10297-5.59546,10.08893-2.09189,2.09247-2.44672,5.95734-3.4794,9.06329-1.13635,3.41766-2.00885,6.9469-4.71249,9.56512-.97879,6.78693-5.42023,12.22717-7.47604,18.94623,4.32336,1.00281,8.40771.33588,12.34897.47198,2.52081-1.99329,2.60068-4.6795,2.6796-7.0614,6.08548-8.70221,9.52921-18.3916,13.5769-28.67767,1.13074,1.61749,1.7341,2.48059,2.2146,3.16797-4.74847,10.66089-9.38724,21.07544-13.92459,31.26239,2.3363.40802,4.91364.87878,7.49969,1.29529.65088.1048,1.39615.22412,1.98535.01672,4.86139-1.71136,9.88245-.77881,14.82632-.91748,6.2569-.1756,12.60983.57318,18.76294-.25446,10.95798-1.47388,21.961.26782,32.81039-.94916,10.47055-1.17444,20.95972.146,31.31091-1.00439,10.14203-1.12714,20.29813.10522,30.32654-.9859,10.96591-1.19312,21.96091.11798,32.81464-1.03528,9.14517-.97174,18.29898.11792,27.31735-.95715,11.12842-1.3266,22.22754-.44556,33.32764-.88477,1.28461-.05072,2.55737-.76862,3.82727-.74408,3.05634.05914,5.96069-1.31189,9.18445-.37061,1.9104.55774,4.21765-.24323,6.34644-.43365,1.47583-.13208,2.95105-.37152,4.42761-.37964,8.16614-.04486,16.33282-.00433,24.4989-.05621,3.12567-.01984,6.20557-.22766,9.34479-.73297,3.09235-.49786,6.49091.0578,9.68536-.31104,10.75537-1.24182,21.59369-.23773,32.29669-1.16376,7.4743-.64673,14.89972-.4483,22.3396-.79187,1.29315-.05975,2.57776-.30615,3.85565-.36548,12.08441.32788,24.12903-.8988,36.28864-1.68542,1.41492-.6347,2.91583-1.30804,3.83551-1.72058,4.36835.38782,8.13379.72211,11.89923,1.0564-.01135-.17322-.02271-.3465-.034-.51971,2.50049-.73877,5.00098-1.47748,7.62885-2.25385-.87213-2.39661-3.06317-3.87335-5.1073-5.65375-5.33649-4.64819-10.362-9.65131-15.59113-14.42572-1.93347-1.76526-4.08948-3.28687-5.59247-4.48138-10.97278-10.49359-21.46075-20.5235-31.83044-30.44037-9.73651,4.66095-16.96625,12.61713-26.92401,16.13184,7.00513-7.30225,15.76508-12.39795,23.72638-18.85138-2.9198-2.63129-4.87976-5.8324-8.40216-7.17944-7.27924,5.17413-14.56635,10.26019-21.7514,15.48645-7.85187,5.71143-15.58844,11.58124-23.42621,17.31232-1.51373,1.10687-3.10779,2.62561-5.51959,1.11005,1.00238-2.48486,2.93005-4.02985,4.93311-5.41913,7.16779-4.9718,14.40442-9.84424,21.58258-14.80121,4.33545-2.99396,8.58533-6.11182,12.922-9.104,3.09937-2.13855,6.27887-4.16095,9.68213-6.40643-1.68011-1.58313-3.11047-2.93097-4.63666-4.36908-7.91559,3.58777-14.67877,9.11639-21.88501,13.9458-2.73151,1.83063-5.48004,3.64764-8.32715,5.28613-.78351.45099-1.95032.23602-3.65869.39215,4.53613-5.71698,10.2489-8.41321,15.31329-11.92853,4.32361-3.00116,8.81793-5.75562,13.18744-8.69257.77454-.52063,1.30737-1.40088,2.54773-2.77539-1.63037,0-2.6123-.2865-3.26868.0542-1.89227.98206-3.66919,2.19257-5.46301,3.35706-5.98061,3.88269-11.59777,8.35735-18.29408,11.49488-1.05932.49634-2.26331.59238-3.37588.23085h0c-.8481-.27559-1.77532-.23324-2.58265.14551-2.13194,1.00017-3.57969,3.00437-5.35128,4.72519-.95754.93011-2.25364,1.43057-3.58856,1.43041h-.04054c-1.47121-.00018-2.8466-.72987-3.67167-1.94795l-.02195-.0324c-1.22794-1.81283-1.09059-4.22325.33532-5.88486l.07583-.08837c1.63874-1.90962,4.02965-3.00844,6.54602-3.00844h0c1.64203-1.08643,3.01514-1.995,4.08252-2.70117,3.03052-2.9613,2.09992-3.86004,5.65974-6.52153l5.48193-3.78981c3.08875-2.73059,5.92584-5.23865,8.88727-7.85675-.1333-.57019-.06598-1.48248-.46082-1.77838-2.82935-2.12134-3.7652-5.81793-6.65393-7.86462-.40228-.28503-.83734-.6358-1.04803-1.06-.95935-1.9317-5.05432-.44202-4.41467-4.06836-1.74933-1.51233-3.50537-3.01691-5.24597-4.53925-1.42511-1.24646-2.83191-2.51404-4.40479-3.91266,1.18036-1.25287,1.95941-2.07977,2.76239-2.93219.57117.13849,1.10229.13977,1.47839.38184,1.2428.7995,2.50916,1.59393,3.62256,2.55676,3.12695,2.70398,6.18732,5.48511,9.26099,8.25024.61853.5564,1.37103,1.07788,1.73541,1.78381,1.83087,3.54718,5.42511,5.19495,8.02325,7.85797h5.48273c2.07605-1.19421,4.82465-1.81415,6.50452-4.46478.69629-1.09869,2.46539-1.6084,3.83453-2.17236,3.74768-1.54358,6.97986-3.75372,9.63513-6.83258.88346-1.02433,1.81684-2.00713,2.79856-2.43255,1.53552-.66539,3.04771-1.38326,4.35597-2.42682l8.11894-6.47623c1.52962-1.22013,3.26857-2.15161,5.13182-2.74889l.70681-.22657c1.18609-.38021,2.19971-1.16725,2.86192-2.22216l.19422-.3094c.46794-.74544,1.22752-1.25999,2.09335-1.41806l.73123-.13349c.32062-.05853.5621-.14307.7845-.26324,9.09023-4.9118,16.60818-10.83062,24.44719-16.29047,7.79449-5.42883,15.83923-10.48657,23.00977-16.72736,1.85126-1.02679,3.74988-1.97748,5.5448-3.09467,5.1579-3.21045,10.53632-6.14911,15.31989-9.85126,3.57513-2.76697,7.23041-5.18195,11.31079-7.03741.43762-.19904.96405-.5415,1.12964-.94775,1.64996-4.04694,5.88654-5.1167,8.80096-7.69733.58783-.52051,1.40833-.79523,2.14838-1.12274.90228-.39923,2.14276-.47504,2.69995-1.14044,3.07067-3.66736,7.87863-4.77301,11.31386-7.87927,1.01144-.91459,2.83339-2.15276,4.05652-2.75562,5.83611-2.87656,10.81836-6.97007,15.84874-10.99811,1.24188-.99445,2.37048-2.13031,4.37891-3.95172,2.91724-.86267,6.48059-2.74243,9.39447-5.90979,1.25787-1.36737,3.34357-1.93646,4.92682-3.04822,4.71027-3.30768,9.15649-7.04721,14.09753-9.95193,3.56512-2.09589,6.55853-4.84616,9.95312-7.09329,4.08565-2.70474,8.21287-5.347,12.28379-8.07347,2.38271-1.5958,4.68883-3.30161,6.98372-5.02131,4.68705-3.51228,10.18184-5.88457,14.26972-10.27623,1.06696-1.14624,2.7804-1.78802,4.30304-2.39453,4.66467-1.85803,8.79773-4.42471,12.15436-8.22137,1.76147-1.9924,3.76947-3.56049,6.46057-4.42203,4.45168-1.42517,8.13982-5.68261,12.27224-6.20505,4.68758-.59263,8.62131-3.62863,11.22802-7.56942,3.18888-4.82091,8.28063-5.34515,12.29552-8.59415,2.52649-2.04446,4.00519-4.00684,4.32526-7.07983h0c.14217-1.33407.90066-2.52634,2.0479-3.2219,1.29653-.78608,2.56782-1.55685,3.89326-2.36046.80946-.49077,1.81521-.53672,2.66509-.11985h0c.97589.47868,1.59437,1.47093,1.59437,2.55789v4.04077c-1.52722,3.95627-5.65723,5.48163-8.90399,7.83218-7.19354,5.20804-14.90936,9.71875-21.91858,15.15067-7.98849,6.19073-16.89072,10.93963-24.93746,16.98783-7.64542,5.74656-15.4747,11.23764-23.49165,16.45338-9.04449,5.88425-17.55868,12.53708-26.42075,18.68711-6.34808,4.40533-12.92419,8.48111-19.29706,12.85184-7.32642,5.0246-14.53595,10.21942-21.80457,15.32855-3.50018,2.46039-7.00092,4.92065-10.53381,7.33356-5.97186,4.07867-11.98254,8.10046-17.95331,12.18066-10.32245,7.05389-20.61932,14.14508-30.94177,21.19891-5.43994,3.71741-10.95197,7.33026-16.35803,11.09564-6.88544,4.79584-13.64954,9.76654-20.55157,14.53796-8.92267,6.16827-17.95874,12.17249-26.8833,18.33807-2.67676,1.84924-5.14417,4.00159-7.46759,6.34967,15.07343-8.64392,29.06708-18.8988,43.42218-28.60529,14.38385-9.72583,28.79865-19.40588,44.08813-29.70422-1.24701,4.04553-4.25311,4.90021-6.25446,6.38007-8.2019,6.06445-16.77136,11.62872-25.12506,17.49176-14.95203,10.49408-29.83405,21.08777-44.77472,31.59808-2.8147,1.98004-5.76636,3.76532-8.91022,5.80621.53387.88391.92395,1.52972,1.4491,2.39923.71271-.26721,1.35016-.37683,1.83649-.70825,5.7085-3.88885,11.92029-6.94525,17.38367-11.29156,5.51947-4.39099,11.6192-8.05347,17.47223-12.02405,5.8606-3.97565,11.7547-7.90253,17.5907-11.91394,8.54755-5.87531,17.05255-11.81262,25.59753-17.69183.31482-.21655.85931-.09955,2.27362-.22375-1.73322,1.67548-2.73273,2.93732-3.99774,3.81769-9.73407,6.77448-19.52948,13.46063-29.28021,20.2113-1.77991,1.23224-3.44275,2.63348-4.96979,4.35876,3.06677-.31195,5.77734-3.14117,8.70715-.48645,10.4679-4.52319,18.9411-11.6955,28.12152-17.74072,2.74438-1.80713,5.47217-3.63989,8.23969-5.41077.61133-.39124,1.35889-.56964,2.27582-.44519-11.61005,9.07501-23.38434,17.84888-35.46539,26.19122-12.04816,8.3197-23.63147,17.35724-37.00885,24.25787.08936-3.31061,3.4433-4.021,5.06036-6.4447-1.45892-1.16144-2.80945-2.23663-4.46832-3.55719-5.63019,2.81787-10.2099,7.09949-15.38599,10.45178,3.49792,6.34766,8.97638,10.20776,15.24219,13.85461,1.71869-.90997,3.68616-1.76593,5.45667-2.92328,5.6474-3.69128,11.25574-7.44482,16.81097-11.27325,3.25195-2.24121,6.35046-4.70398,9.56885-6.99573.96643-.68811,2.104-1.13611,3.38611-1.30688-10.19843,9.40063-22.25281,16.32025-33.41693,25.48102,2.76709,2.26099,5.08612,4.05719,7.29291,5.98212,3.31189,2.88898,6.40991,6.03839,9.84521,8.76697,4.50714,3.5799,8.46765,7.7663,13.48639,10.82428,3.73914,2.27838,6.66284,5.89453,9.95099,8.91345,1.43701,1.31934,2.74103,2.84406,4.35315,3.89563,1.70605,1.11298,2.88086,2.54291,4.19275,4.04669,2.13788,2.45038,4.96582,4.29877,7.50378,6.39978,1.01788.84265,2.07593,1.64069,3.05212,2.52899,5.27179,4.79724,10.54596,9.59241,15.76544,14.44623,1.18591,1.10284,2.15894,2.43457,3.3822,3.83521-.71289,1.12573-1.39075,2.19617-2.17871,3.44049,5.81732,4.81317,11.57764,9.5791,17.39349,14.39105,5.92847,1.12964,11.93311,2.23901,18.0365.64569,6.91528,1.51099,13.91742.54572,20.87115.59558,6.26855.04498,12.53906-.7168,18.81458-.85553,2.8537-.06311,5.71649.6554,8.58484.76337,2.11456.07953,4.24341-.27771,6.36829-.40076,2.3045-.13342,4.89478-.94049,6.85529-.16943,3.43213,1.34979,7.60792.19062,10.5514-1.39379,3.49341.58215,12.91284-1.87877,16.73333.8-2.4679,1.04486-11.47007,2.58292-13.4,3.4-6.88684-.10461-6.46667,3.13333-16.53333,2.46667-2.6,1.73333-3.2.2-6.26667.86667-.80336.17464-1.6.86667-3.66667.4-5.2-1.2-5.94968.83515-9.98868.79988-1.45166-.0127-2.94464.74713-4.35431.58691-5.06573-.57568-9.38342,1.72797-13.72076,3.58356-2.07544.88788-3.81396,2.42413-6.26959,2.64484-1.02179.09186-1.95801,1.13586-2.80066,1.66388-1.96582.63104-4.20776-.67236-5.47424.94977,2.67645,2.742,3.39405,3.03049,6.74158,6.46006m-60.3913-50.23813c-.98779-1.15747-1.26099-1.59229-1.63733-1.90155-6.11279-5.0224-12.23718-10.0307-18.36279-15.03748-1.01605-.83044-2.03815-1.65417-3.07764-2.4549-3.25836-2.50964-6.5415-4.98737-9.78455-7.51666-1.8537-1.44574-3.86884-2.76886-5.4245-4.49561-3.68268-4.08752-7.42383-8.02625-12.45032-9.85168-1.67755-5.79944-7.24072-6.10309-11.07825-8.92322-.30359-.91174-.66083-1.98456-1.03351-3.10388-1.23322-.61115-2.4043-1.19147-3.49561-1.7323-1.20404.30756-2.25861.57697-3.34253.85382-.10114-.76782-.17047-1.29395-.26227-1.99103-4.55518,1.07953-8.04504,3.74713-11.30951,6.35614-3.24915,2.59674-7.60895,3.96399-9.92932,8.04541,1.96967,1.83148,3.77753,3.51251,5.76709,5.36249,2.43884,6.31616,10.00696,8.59015,13.52966,15.29169-2.44427-.5036-4.28204-.8822-6.21417-1.28027-5.97711-5.54303-11.97211-11.10266-18.08221-16.7691-3.39044,2.95618-7.35382,4.7511-10.89728,7.66058,3.0592,2.61444,5.78015,4.77289,8.31091,7.13507,6.67157,6.22699,13.27386,12.5285,19.87909,18.82629,7.90967,7.54144,15.77643,15.12805,23.7041,22.65039,1.5481,1.46893,3.31903,2.70001,4.93591,4.09998,2.58142,2.23505,5.11975,4.51965,8.22034,7.26508,1.26471-.22571,3.35284,1.18762,5.9762.01245-2.91949-2.86713-5.56592-5.38434-8.09332-8.01581-.5213-.54266-.59924-1.51123-1.07635-2.81659,2.22394.68317,3.75494,1.15338,4.49969,1.38214,4.11182,3.56305,7.61023,6.59454,11.10919,9.62659,2.854.34387,5.63031,1.00507,8.36865.87384,1.4198-.06805,2.69574-.60944,4.18878.06244.82654.37207,1.97253.13904,2.95844.03113,2.27411-.24884,4.54791-.53113,6.80328-.9104,1.43909-.24194,2.85278-.65472,4.25836-1.05878.23938-.06879.38037-.48016.84882-1.11627-.56073-.44611-1.177-.93634-1.92102-1.52826.10266-.43408.24579-1.039.38885-1.64392q-2.1709-1.76709-2.74951-4.94c3.90454,3.29028,7.53363,6.34845,10.81659,9.11499,3.93408.22595,7.37585.42365,11.6709.67035.51154-.12402,1.92334-.46643,3.83795-.93066-3.76392-3.67352-7.41748-7.07098-10.8761-10.65649-4.48608-4.65063-8.85095-9.42029-13.18329-14.21527-.78857-.87274-1.17108-2.11237-2.09381-3.84497,2.32178.521,3.84229.86218,6.30237,1.41425Zm-89.55151-72.80884c-1.08667.90076-2.04816,1.8349-3.13898,2.57977-7.46973,5.10107-14.99005,10.12823-22.44354,15.25281-3.06726,2.10895-6.00934,4.39984-9.26459,6.79657,1.52185,1.65912,2.72394,2.9696,4.02423,4.38721,1.8017-.62616,3.3194-.86902,4.51501-1.62274,3.47607-2.19153,6.83075-4.5766,10.21906-6.90601,5.56079-3.82281,11.09985-7.67743,16.68799-11.45966.38654-.26154,1.104-.03418,1.66754-.03418l.31842.7403c-9.97229,7.0484-19.94464,14.09674-30.3504,21.45142,2.45044,2.29321,4.56744,4.27429,6.6676,6.23969h3.08423c3.22321-2.07153,5.71454-3.65021,8.17322-5.27814.3537-.23413.54944-.70673.80035-1.0448-.87897-1.06525-1.67688-2.03223-2.44434-2.96234,2.68512-3.51599,5.4848.2807,7.034-.31958,8.49438-4.45587,14.94025-10.00452,21.95526-14.94476-2.22815-2.3891-4.04352-4.48645-6.02197-6.41656-2.19031-2.13684-3.98395-5.07001-7.70593-4.08984.13721-.97961.21979-1.56903.33191-2.36914h-4.10907Zm-395.4191,97.84784c.56723-1.46881,1.24069-2.80664,1.60443-4.22406,1.6431-6.40308,4.41031-12.31714,7.59265-18.07031,1.18491-2.14221,2.51968-4.27142,3.24768-6.5766.70517-2.23291,2.36694-4.54156.89642-6.37854.64606-2.79901,1.15103-4.98688,1.56879-6.79669-1.35858-1.66095-2.29614-2.80713-3.11142-3.80383v-3.76392c2.89566-3.26343,4.98462-6.96594,5.7059-11.28058.15289-.91467-.4772-1.96027-.91589-3.56512-1.21506,1.51947-2.14276,2.31177-2.60275,3.31787-2.10733,4.60895-4.146,9.25189-6.09055,13.93195-2.17972,5.24628-5.48834,10.0011-6.79214,15.62701-.07397.31909-.14432.71844-.36441.91223-2.60352,2.29138-3.21652,5.67023-4.44611,8.02374-.44336,2.82336-.79813,5.08234-1.16916,7.44495,1.17795,1.64325,2.44495,3.41071,3.74069,5.21832-2.21729,5.1076-4.44046,10.14813-6.58481,15.22198-.57242,1.35443-.99716,2.78992-1.31827,4.22656-.2988,1.33685-.36917,2.72467-.5401,4.09009l.95233.31165c2.81351-4.52246,5.62701-9.04492,8.62671-13.8667Zm356.3273-76.30133c1.71307-.11664,2.44604.04181,2.93256-.23419,2.7149-1.5401,5.44958-3.06824,8.03064-4.8172,7.31122-4.95398,14.62927-9.90613,21.75751-15.11505,1.54364-1.12805,4.10321-1.48108,4.5542-4.01831-2.33649-1.28973-4.05328-.02222-5.67731,1.0047-3.88,2.45343-7.5603,5.23572-11.51447,7.55597-6.55542,3.84656-12.51062,8.48358-18.37067,13.26837-.46851.38257-.74341,1.00226-1.71246,2.35571Zm150.03357,101.37494c-1.36237,0-2.58771-.26398-3.64398.04675-4.10382,1.20709-8.23218,2.07257-12.53766,1.86304-1.71924-.08368-3.04132.65424-4.65234,2.17529,3.2973.87445,6.02063.61261,8.75159.3244,2.4259-.2561,4.93317-.94623,7.26416-.57166,2.52234.40533,4.64661-.48407,7.71411-.51746-1.30426-1.49548-2.12476-2.43622-2.89587-3.32037Zm22.32764,10.85492c1.99268,0,3.87817-.43286,5.45129.08435,4.0744,1.33966,8.10986.42041,12.32477.61401-1.83612-3.32648-4.79962-4.11926-7.68872-4.68872-3.76233.88367-7.28833,1.71185-11.06458,2.59882.61877.88116.89386,1.27283.97723,1.39154Zm3.34918-8.25232c-4.24487-5.75348-10.69952-6.22327-15.17224-1.54724.80383.53589,1.54736,1.45032,2.3233,1.4787,4.02509.14734,8.05841.06854,12.84894.06854Zm3.06775,16.46387c3.32819,0,6.5838.09003,9.83221-.0246,3.43402-.12115,6.86115-.43701,11.01398-.71649-2.4032-1.78278-4.24524-2.49585-6.51562-2.47174-2.60028.02771-5.25745-.72742-7.79224-.39575-2.44812.32025-5.7757-.13837-6.53833,3.60858Z"/>
  <path d="m497.23299,299.28861l-.00002-3.198c0-.29657-.10322-.59019-.28237-.82654-4.10829-5.41972-4.74361-8.26634-5.28909-15.79151-.19114-2.63629-1.6816-5.17838-2.6948-7.72838-.13729-.34552-.40617-.62409-.74929-.76727-.38517-.16073-.75866-.31658-1.12828-.47082-1.70012-.70945-2.80603-2.37063-2.80603-4.21284v-2.38407c0-.48777-.17633-.95624-.49964-1.32147l-.0194-.02192c-.87572-.98926-1.26225-2.32508-1.04662-3.63043.20237-1.22513.40647-2.46072.62661-3.79349.08184-.49548-.11359-.99887-.51388-1.30213-.35108-.26598-.76831-.58208-1.24725-.94492-.2453-.18583-.42144-.44993-.4987-.74782-1.37418-5.29874-3.58154-10.67282-3.1696-16.5857.04486-.64407-.00787-1.36902-.26202-1.94815-1.93254-4.40251-1.79772-9.04824-1.70666-13.94272.00598-.32128-.11064-.6315-.3103-.88329-2.52607-3.18565-2.85865-7.28754-3.83515-11.28269-1.85742-7.59909-1.52356-15.48737-3.62018-23.03528-.35871-1.29121-.5276-2.68115-.3803-4.17761.14604-1.48357,2.23158-1.73786,2.65805-.30943.01046.03505.02079.07011.03099.10519.46439,1.59711,2.83266,1.15813,2.66647-.4968-.03806-.37898-.07689-.75774-.11181-1.13561-.27863-3.01523-.99432-6.0105-1.03802-9.02148-.04082-2.8206-.67331-5.35089-2.08943-7.82216-.33906-.59171-.02427-1.3425.63671-1.51039l.02214-.00562c.42624-.10827.88848.0613,1.12976.42999,2.54198,3.88411,3.77875,8.0713,4.88334,12.60692,1.20319,4.94049,1.65765,9.98734,2.94489,14.89731,1.78204,6.79758,3.95569,13.66586,4.36548,20.59824.37334,6.3148,1.80128,12.19786,3.31416,18.20038.59985,2.37996.80739,4.82857.91841,7.28045.13001,2.87125,2.00115,5.42948,1.45055,8.3649-.04173.22247-.03722.45241.03182.66797,2.51719,7.85854,3.62385,16.04422,5.35732,24.07536,1.86346,8.63321,2.84875,17.4552,4.25244,26.18912.23303,1.44992.78925,2.85669.93512,4.3096.10397,1.03591-.02328,1.97073-.66095,2.59772-.83554.82156-2.26446.1472-2.26446-1.02459Z"/>
  <path d="m737.13111,811.12977c1.06562-1.1271,2.45429-2.58833,3.85041-2.63449,3.19877-.10578,3.67309-.78528,5.68696.12666l4.15749,2.47684c1.53846,1.24563,2.23725,3.08249,1.89954,4.90634-2.21161,11.94395-14.77268,44.57564-21.9852,59.84235-2.14186,4.53367-7.22625,6.88352-12.08057,5.62758-2.57443-.66607-4.9129-1.32488-5.56594-1.55315-28.78093-10.05973-57.5078-20.27467-86.82638-30.67141-2.02293-.71736-3.62938-2.3003-4.37144-4.3143-2.95031-8.0074-5.89565-16.00136-8.86971-24.07344-1.83374-4.97708-8.21749-6.40722-11.96005-2.6486-8.02287,8.05728-20.15557,18.30544-31.65946,22.48218-1.35776.49297-2.86274.38338-4.13508-.3005l-.00057-.00031c-6.33503-6.99314-6.59222-12.07007-2.45646-18.42449.09799-.15055.21589-.28938.34864-.41039,10.26754-9.3589,25.50794-20.1916,36.26649-29.98973,1.84896-1.6839,2.73839-4.18335,2.34341-6.6528-1.64986-10.31506-3.27854-20.49712-4.88767-30.55676-.33314-2.08266-1.56978-3.92-3.39402-4.97859-5.69176-3.30288-11.28777-5.34887-17.78863-6.48415-7.28557-1.27205-16.19945-1.98596-20.15201-10.99501-.7896-1.79972-.66483-3.87111.20631-5.63281l2.13141-4.31032c1.26533-2.55885,3.91576-4.16051,6.76798-4.04379,16.76501.68606,31.17172,9.99327,46.79936,13.48305,1.62603.36311,3.11754,1.22287,4.12127,2.55265,5.95387,7.88787,2.16026,18.14346,4.12845,27.82411.67541,3.32204,4.88808,4.41182,7.11586,1.8566,7.83123-8.98229,15.20978-17.44551,22.53952-25.85248,2.07682-2.38205,5.46538-3.13084,8.3544-1.84986.43261.19182.84325.38008,1.25022.57597l.14761.072c2.38724,1.16436,3.90168,3.58793,3.90176,6.24399l.00024,8.20841c.00005,1.64487-.58647,3.22999-1.66057,4.47574-9.38463,10.88428-19.89985,23.07979-31.145,36.1217-1.52253,1.7658-2.07356,4.16924-1.46104,6.4189,2.26484,8.31823,4.79142,17.5972,7.4134,27.22634.58886,2.16258,2.14304,3.92668,4.20706,4.80038,10.09595,4.27366,20.28698,8.9027,30.80426,12.60509,9.51108,3.34836,18.62077,5.89619,28.26426,9.38643,6.9947,2.53157,15.12638,5.40726,18.23879,1.01327,6.89021-9.72735,8.74901-16.80619,13.37511-28.37145"/>
  <path d="m675.97212,494.59998c-.87103-.68542-7.41387.62702-8.52336-.24609.94678-1.06519,1.5589-2.08319,2.44928-2.69812,3.78217-2.61176,7.71069-5.01343,11.46582-7.66193,5.10303-3.5993,10.04254-7.43091,15.15228-11.02032,5.11853-3.59552,10.4046-6.95209,15.53595-10.52985,5.79797-4.04266,11.47485-8.25873,17.26233-12.31683,4.31036-3.02228,8.72583-5.89423,13.07147-8.86682,7.04913-4.82172,14.30408-9.37939,21.05823-14.58557,7.7019-5.93677,16.00793-10.97028,23.79779-16.75397,8.19238-6.08264,16.32855-12.2428,24.59344-18.22516,4.93549-3.57245,10.13538-6.77802,15.10223-10.30914,8.58502-6.10345,17.04321-12.38531,25.62579-18.49231,7.90784-5.62677,15.93304-11.08817,23.85895-16.68982,3.62323-2.56076,6.94617-5.59711,10.74329-7.8475,4.07758-2.41666,8.46472-4.39288,12.8996-6.08118,1.58124-.60199,9.69139-2.94531,11.3947-.42401-1.2157.25491-2.20575.51971-3.21307.66458-7.45129,1.07159-13.1084,5.67572-18.99054,9.75601-6.21722,4.31281-12.21417,8.94223-18.40802,13.28995-8.47992,5.95236-17.11572,11.68317-25.5708,17.66986-7.78796,5.51428-15.37146,11.31683-23.14233,16.8559-9.90631,7.06122-19.89575,14.00653-29.87927,20.9588-4.55365,3.17096-9.21161,6.19232-13.76086,9.36932-3.10229,2.1665-6.07886,4.51208-9.14539,6.73102-12.52856,9.06543-25.08154,18.09723-37.60175,27.17426-5.58997,4.05267-11.11066,8.20081-16.68683,12.27277-5.31915,3.8844-10.65363,7.74823-16.00995,11.58124-7.48364,5.35535-14.99377,10.67365-23.07898,16.42493Z"/>
  <path d="m43.32089,638.1223c1.43896-1.06996,2.59399-1.92881,3.70589-2.75557.36423-.27082.83657-.34173,1.27037-.20821,4.53106,1.39464,8.85716,1.43561,12.35927.24083.18355-.06262.38142-.08774.57454-.06996,3.40125.31315,5.929.67704,8.463.72763,5.32664.10626,10.71416.5202,15.96974-.09924,5.44743-.64209,10.88391-1.151,16.3051-.76337,4.27857.30599,8.64878-.79343,12.87131.3174,1.31266.34532,2.68001.38791,4.03516.31114,4.74493-.26883,9.49998.72044,14.23861.10254.46979-.06128.90158-.41382.40135-.172,5.59613.15618,10.59221.29565,15.99165.4464,1.34407.03753,1.89144,1.74933.81601,2.55642-.19191.14402-.3825.28706-.57309.43009-1.11933.84003-2.511,1.14432-3.90804,1.06179-1.59972-.09451-3.50969.61614-5.34395,1.18127-3.4769,1.07126-6.82278,1.33296-8.87131.52953-.1634-.06408-.33039-.10192-.5059-.10192h-10.35107c.00558-.05389.01115-.10779.01672-.16168-2.60393.21722-5.21149.3988-7.81073.66241-2.27719.23096-4.54468.55707-6.81731.83423-.49362.06024-1.00278.18359-1.48451.12128-5.45764-.70599-10.90981.13031-16.3625.0271-5.47148-.10352-10.94551-.51001-16.41019-.39441-4.21971.08936-8.42299.82397-12.64107,1.18396-1.81111.1546-3.68214.34302-5.4529.05957-2.57628-.41229-5.14043-1.08374-7.603-1.94861-.93187-.32727-1.74873-.98201-2.88635-1.84198-.75687-.57215-.75817-1.7105.0032-2.27663Z"/>
  <path d="m448.19528,37.80555c.52045,1.87483,1.03735,3.78264,1.86072,5.53473,1.70471,3.62756,2.44714,7.5251,2.7948,11.39841.26819,2.98918,1.23517,5.80132,1.54724,8.66277.45721,4.19147,2.26569,8.24124,1.28601,12.66374-.34553,1.55944.25741,3.32898.6301,5.39566.08719.48351.00478.97954-.24832,1.40064-.00538.00896-.0108.01796-.01624.02702-.76715,1.2763-2.61541,1.2963-3.40684.03491-.39124-.62356-.76463-1.21867-1.1408-1.81825-.13846-.22068-.31798-.41182-.52998-.56325-1.72964-1.23548-3.50678-2.50491-5.11734-3.65534-.3869-.27637-.66732-.6783-.78012-1.14019-.93885-3.84435-.98951-7.64595-2.16945-11.13356-.53583-1.58378-.85494-3.22842-.90929-4.8995-.13613-4.18567-1.67802-8.16007-2.32177-12.26972-.37891-2.41957-.75146-4.85181-.88672-7.29164-.03257-.58713.26074-1.19233.60747-1.92645.33028-.69929,1.0344-1.14959,1.80777-1.14959h5.30528"/>
  <path d="m841.21084,806.89075c-5.79028-2.2534-12.32879.47298-14.80697,6.17068-3.44563,7.92203-6.66865,15.30746-9.6383,22.79333-6.76174,17.04492-16.70987,45.54455-23.56084,62.55235-.69423,1.72341-1.88205,3.24789-3.06365,4.58355-2.25032,2.54374-5.53678,4.12159-8.92201,3.84825-3.94393-.31845-6.46531-2.63-8.22706-6.64274-1.20692-2.74901-1.19171-5.88033-.09667-8.67578,6.07271-15.50256,22.24594-58.67416,40.79111-106.01668,1.9664-5.01986,7.15909-8.15395,12.47283-7.24297,1.90463.32653,3.83359.95114,5.84077,1.84171,10.0424,4.4551,20.46708,8.07223,30.82076,11.79256,4.89243,1.75797,9.58001,3.6512,12.98731,7.71693,1.2519,1.49381,2.11072,3.33469,2.34824,5.2692.302,2.45965-.18236,4.56128-1.29502,6.41032-2.74991,4.56987-8.69839,6.08816-13.66873,4.15387-7.03021-2.73592-14.2673-5.55236-21.98178-8.55459Z"/>
  <path d="m583.7369,318.23997c2.17957-1.63132,4.24725-3.44534,6.55872-4.86136,8.5769-5.25424,16.33002-11.63242,24.34106-17.6546,4.8645-3.65686,9.3927-7.77509,14.35858-11.27997,9.79803-6.91528,19.89307-13.41003,29.6825-20.33698,9.65906-6.83475,19.07751-14.009,28.63788-20.98459,1.80914-1.32001,3.76129-2.47089,6.75055-3.04645-.66656,1.85934-1.12646,3.14218-1.34827,3.7608-10.39282,7.35129-20.25928,14.18423-29.96667,21.23618-10.50928,7.63446-20.78625,15.58975-31.3313,23.17319-5.19312,3.73459-10.84015,6.83124-16.14191,10.423-6.94629,4.70581-13.73828,9.63858-20.62976,14.42612-2.69342,1.87115-5.44641,3.66226-8.24133,5.3772-.64838.3978-1.57935.33484-2.38031.48389-.09656-.2388-.19318-.4776-.28973-.71643Z"/>
  <path d="m374.93052,473.28907c-.82977-.88428,7.41469-9.721,6.91219-10.25652,3.98309-3.45807,7.69507-6.68274,11.4097-9.90424.75101-.65137,1.46216-1.36371,2.27676-1.92432,4.84903-3.33716,9.72598-6.63373,14.58792-9.95209,6.90375-4.71198,13.80585-9.42645,20.70251-14.1488,4.34113-2.9726,8.67334-5.96979,12.94568-9.02344,5.17932-3.70197,9.4563-8.80182,15.76685-10.98779,1.94037-.67218,3.55487-2.31879,5.28046-3.57172,7.45349-5.41223,14.9046-10.828,22.32642-16.28345,1.30957-.96259,2.55841-1.91217,5.08966-2.08917-1.15051,1.29108-10.34026,10.48199-11.06419,10.99877-8.82751,6.30225-17.93854,12.23846-26.46802,18.9184-8.55841,6.70258-17.7486,12.62305-25.59674,20.22504-.35791.34674-.68536.78168-1.11676.98724-5.69275,2.71155-10.22534,6.94781-15.06519,10.87585-6.37198,5.17157-13.34192,9.61517-20.12808,14.26483-5.68582,3.89569-11.47681,7.638-17.85916,11.8714Z"/>
  <path d="m767.18443,763.13103h1.77244c3.8581,0,7.3802,2.17649,9.13657,5.61162,1.21684,2.3799,1.88926,4.25735,2.07525,7.60524,1.39326,20.19405,1.67041,51.59068,5.89937,69.83371.08743.37705.12818.76494.14179,1.19556.08905,2.81813-1.14298,5.5184-3.18773,7.45973l-.34327.32591c-4.09967,3.8923-10.68537,3.82136-14.47908-.36971-2.28089-2.51979-3.53726-5.65952-4.34282-8.7237-3.07477-23.31365-5.8205-52.12543-7.0295-71.46082-.07267-1.16264.08443-2.33966.36698-3.53607,1.096-4.64083,5.22151-7.94146,9.99-7.94146Z"/>
  <path d="m263.58993,574.34852c3.81723-6.42523,9.38791-10.39612,15.36224-13.78088,4.42682-2.508,9.15817-4.43915,13.01917-7.92584,1.10339-.99646,2.65952-2.00299,4.81201-1.13672-.18286,2.4881-1.27646,4.48669-3.37033,5.5257-3.59613,1.7843-6.07053,4.88544-8.93454,7.43628-4.45261,3.96564-9.31049,7.29327-14.17853,10.63513-2.78528,1.91205-3.77954,1.67474-6.71002-.75366Z"/>
  <path d="m815.59035,905.03405c2.74035-8.21212,5.4807-16.42423,9.00767-26.99372.60818-1.82257,1.78896-3.41584,3.36072-4.52092l3.8305-2.69317c2.88029-2.02509,6.68579-2.17123,9.7164-.3789,2.06036,1.21851,2.91497,1.77459,4.43123,2.67119.92285.9929,2.27,2.53385,2.65041,3.30139,1.46327,2.95242,1.11596,3.19289-.60958,8.58962-3.6633,11.45721-8.25784,22.1682-12.23274,33.29718h0c-1.2318,3.39406-4.52486,5.58103-8.13354,5.46092-5.41558-.18025-6.96382-.85398-10.52618-4.44466-1.63928-1.65231-2.56206-3.90275-2.56206-6.23028"/>
  <path d="m723.15618,792.81652c.05568,3.94465-1.68026,6.42456-6.48571,8.14341-18.27896,1.36924-39.85151-5.0991-49.76978-14.8573-2.18385-3.44598-2.58684-4.99593,0-10.53264,4.07794-5.9329,8.88465-6.41402,14.83074-4.6751,9.61908,2.81289,19.28788,5.52617,28.71539,8.89759,5.59224,1.99997,11.11075,4.82052,12.70936,13.02404Z"/>
  <path d="m657.3192,813.49888c.2414-1.7865.80716-3.31064,1.66148-4.62923,2.75238-4.24813,8.38139-5.50077,13.07759-3.6119,9.76999,3.92962,20.53509,5.93087,29.85238,11.30879,3.43121,1.98049,5.56067,5.63565,5.56067,9.59741v.01686c0,4.59558-2.81402,8.81099-7.15379,10.32286-1.73573.60469-3.41705.92739-4.88432.50562-11.93262-3.43015-24.57934-5.83282-34.41664-14.1937-2.68797-2.28455-4.16975-5.82082-3.69737-9.31671Z"/>
  <path d="m829.76827,372.0138c-3.57379,2.87921-7.039,5.90735-10.74268,8.6084-9.29376,6.77789-18.66833,13.44611-28.06549,20.08051-4.55054,3.21271-9.09442,6.47241-15.40332,9.08948,1.04517-1.56287,1.36615-2.38788,1.96332-2.87305,2.04102-1.65833,4.09143-3.33313,6.297-4.75562,6.07355-3.91705,12.05219-7.94397,17.84772-12.28235,6.43427-4.81641,13.22845-9.15173,19.86255-13.70142,2.49969-1.71429,4.99005-3.4422,7.48468-5.16394.25208.33264.50415.66534.75623.99799Z"/>
</svg>