<?xml version="1.0" encoding="UTF-8"?>
<svg id="a" xmlns="http://www.w3.org/2000/svg" viewBox="0 0 911.45987 923.77212">
  <defs>
    <style>
      .b {
        fill: #fff;
      }
    </style>
  </defs>
  <path class="b" d="m784.18845,614.63362c2.11469-.13177,4.20624-.60291,6.31744-.83765,1.15436-.1283,2.41254-.37439,3.47852-.06561,4.90381,1.42072,8,.67224,14.21667.22223,3.46344-.17865,15.41669-.8667,12.80554,1.55554-4.23761,2.2464-19.81146,3.30249-22.1333,4.53333-4.32703-.21545-7.84088.69739-11.08893.32214-3.07483-.35516-3.85107.8316-7.49701.14203-1.58478.33496-3.80878.80493-6.02496,1.27332.24463,1.68903,1.45117,3.51825,3.61963,5.48773,1.7337-.28204,3.96216-.64752,6.12531-.99341.62109-.0993,1.24756-.16144,1.8761-.18475,9.20587-.34125,18.41425-.63391,27.61877-1.0177,3.77966-.15753,7.56494.55402,11.3623-.73096,1.61469-.54633,10.71112-.61383,12.6532-1.25391.23627-.07788.78583.79492,1.69666,1.76843-5.88214-.4975-17.09668,3.63159-23.56329,2.83154-3.99304.57141-8.23303.54303-11.46667.93335-5.86755.70813-9.61249.97827-15.46686,1.77759-1.54541.21094-2.99921,1.09296-4.69415,1.74323.54596,1.14758.88159,1.85303,1.43701,3.02045,1.97174-.27887,4.02374-.56909,6.77142-.95764,2.14203.79187,4.8678,1.19592,7.93884.08917,2.07141-.74652,4.61719-.1311,6.94739-.21655,2.95337-.1084,5.92407.43304,8.84918-.81329,1.05225-.44836,2.6593-.07874,3.84473.36621,2.83014,1.06213,5.67175,1.58862,8.7074,1.5553,1.38019-.0152,2.76898.74762,4.5119,1.26349-3.01105,3.64563-8.11774.13641-10.73267,4.45026,1.90576.4007,3.76111.07947,5.56073.20135,1.94824.1319,3.8941.2981,6.95563.53595,1.23846-.32874,10.586-1.09723,13.125-1.77106,2.52631.8407,5.97186.8335,8,3.37781-1.15338,1.32147-2.21698,2.54004-3.27679,3.75439-7.3783,2.16034-22.55707,4.51855-30.23627,4.43188-4.43243-.05005-8.85876-.39069-13.36719.54486-3.1709.65802-6.69373-.37994-10.12054-.66571-.96136.65363-1.90857,1.29767-3.00793,2.0451-.85913,0-1.85645-.02521-2.85211.00378-11.2713.32843-22.58337.20184-33.7962,1.19464-5.62701.49823-11.2674.19391-16.81927.88544-10.76758,1.34131-21.55261.65045-32.32599.95459-4.17041.11774-8.32483.75336-12.49579.914-4.3269.16669-8.67017-.0885-12.99707.07812-6.77216.2608-13.53674.72131-20.99133,1.13525-2.48053,1.37207-5.63702,2.87872-9.18073.89569-.25909-.14502-.66022-.08588-.98785-.05145-5.55023.58472-11.0993,1.18073-17.47516,1.86249-.75781-.31201-2.27118-.93506-3.41431-1.40576-13.00928.65326-25.7193,1.2915-40.45996,2.03168-2.33575-.51788-12.10986-.08728-16.88416,1.29309-4.88647-1.36407-9.91229-1.14569-14.77002-.40009-1.9743.30316-4.00488-.39508-5.61426.29608-1.69818.72943-3.17578.59918-4.75714.37604-.3161-.04462-.83643-.07678-1.15564-.07684-6.59503-.00043-13.18402-.00031-20.1189-.00031-2.95941,2.71411-6.69574,1.54352-10.33807,1.32715-1.75049-.104-3.51221-.01788-5.26886.24255-4.31073-1.26263-5.41821-.17371-13.04462,1.43457-1.90479-.66174-3.91919-1.36151-5.93359-2.06128-8.84338.23669-17.53497,3.63373-27.28864.94995-3.46002,1.20032-7.54785,2.94263-11.80353,4.02521-8.05243,2.04852-16.28851,2.56915-24.88934,1.91071-1.51251-1.42792-3.19727-3.01849-4.97882-4.70038-4.80078-.33435-9.60522.02777-14.39563.77966-.65338.10254-1.45456.31213-1.97318.04944-2.75803-1.3974-5.43808.23865-8.15936.0824-2.65753-.15271-5.33832-.14624-7.99615.00848-4.32117.25153-8.6073,1.06616-12.95285.92938-1.62033-.05096-3.23294-.34552-4.59354-.5-2.16144.19159-4.10269.44562-6.0509.52228-9.26889.36475-18.54163.63696-27.80847,1.04504-2.44525.10767-5.07129,1.30621-7.26239.71014-2.91342-.79248-5.46988-.79364-7.31488.03943-7.88486-.70984-14.82538.58911-21.80042.68237h-9.77124c-2.06912-.08929-5.4487-.94794-8.41412-.18884-4.01123,1.02692-7.92661.61469-11.86273.66382-8.2637.10315-16.45914.66986-24.63071,1.94757-2.02368.31641-4.20593-.38123-6.39923-.62195-2.48727.2356-5.13037.30072-7.70132.76538-6.73932,1.21808-13.5578.56317-20.30469,1.09534-3.68109.29028-7.35135,1.60577-10.85864,2.91022-2.49188.92676-4.57935,1.15778-7.11819.07843-3.13812-1.33405-6.53162-2.06738-9.66415-3.01465-4.52649,1.46893-9.0107,1.28467-13.32767.43756-3.25259-.63824-6.57903-.50806-9.82677.15448-1.28462.26208-2.64592.27271-3.96725.28558-4.83276.0473-9.67038-.09973-14.49808.06464-3.61099.12286-7.37346,1.43054-10.77632.75-5.48897-1.0979-10.91083-.56995-16.35423-.74921-1.82476-.06012-3.66334.29932-6.21152.62561-.76388.09784-1.54512.0517-2.29107-.13971l-3.47028-.89044c-1.37852-.3537-2.80711-.46686-4.22576-.35345-7.95203.63568-15.57725,2.43207-24.31644,1.18317-.26537.04456-1.70226.4184-3.15628.50543-4.93797.29559-9.86139-.18207-14.84427.8111-1.40634.28027-2.92651-.01062-4.43197-.42609-2.55806-.70599-5.22386-.91675-7.8605-.61646-.87656.09985-1.73871.18469-2.60282.2373-3.07375.18689-6.13327-.35901-9.24115-.04547-2.9697.29956-5.99402.10559-8.99311.05548-4.96854-.08295-9.80022.81696-14.64656,1.77234-2.10026.41394-4.25707.54114-7.00437.78577-1.23121.10962-2.46914-.18219-3.51613-.83923l-2.07548-1.30243c-.68936-.43274-.75962-1.00806-.42377-1.36707,1.05597-1.12878,1.97645-2.11267,2.84645-3.04266.49489-.52899,1.14157-.88287,1.85411-1.01349,1.45548-.26672,4.01803-.73706,5.49795-1.00867.73789-.13544,1.49592.00702,2.13576.39868l.28057.17175c1.34023.82043,2.88688,1.25427,4.45828,1.25574,6.37893.00586,12.5979.02875,18.81604-.03192,1.45633-.01416,2.92332-.35217,4.35992-.65985,1.73531-.3717,3.31644-.41998,5.10778-.08923,2.14535.39612,4.35018.33636,6.50465-.00671l1.99359-.31744c.80226-.12775,1.28433-.27466,1.74273-.48596l.5817-.26807c1.33601-.61572,2.80444-.88867,4.27247-.79419,6.60529.42517,12.32571.79327,18.8133,1.21088,1.91646-.15924,4.68716-.50458,7.46645-.60028,11.10007-.38245,22.20769-.58051,33.30135-1.08997,3.04671-.14001,5.91945-1.08344,9.15665-.31433,2.76245.65637,5.37506-.88495,9.67725-3.39404,1.04694-.6106,2.10219-1.20691,3.13345-1.78204,2.73711-1.52661,5.80327-2.36755,8.93657-2.43549.70332-.01526,1.39574-.04852,2.07594-.12408,1.58568-.17615,1.52377-2.5141-.07034-2.57867-3.74771-.15179-7.78374.06903-10.52115.59845-1.12874.21826-2.27785.323-3.42741.33722-3.62131.04492-7.24515-.03864-10.86621.03174-16.10329.31305-32.20581.664-48.30885.99036-1.43614.02911-2.87315.0155-4.43683.00842-.84246-.00385-1.65777-.30585-2.29948-.85168l-.94151-.80084c-.73447-.62476-.7092-1.76666.05219-2.35828l.9435-.73315c.91043-.70746,2.01638-.98236,3.07741-.74817.5054.11157.97884.1955,1.45291.19928,5.99947.04779,12.03432.44312,17.99292-.05255,18.97153-1.57812,37.96535-.61426,56.94553-.91833l.05457-.00085c3.6953-.05817,7.11472-2.00861,9.02173-5.17438,3.81451-6.33228,5.74437-12.99243,4.67978-20.31818-.55844-3.84277-4.12036-6.57281-7.9724-6.08209-1.80545.23004-3.57234.65454-5.34462,1.06354-1.70041.3924-3.45834.32959-5.16495-.03497-5.01286-1.07092-9.62483,2.03778-14.54253,2.62006-1.4093-.19116-1.9409-.14514-3.21477-.2793-.38083-.0401-.90508-.01489-1.26666.11108-.33849.11798-.70447.05682-1.4-.06665-.55188-.46356-.61817-.57397-1.05389-1.0722-.56006-.64044-.7969-1.5058-.63935-2.34186l.87864-4.66248c.20742-1.10071.84322-2.0929,1.79314-2.68634,1.84853-1.15491,3.80775-1.33698,5.7766-.81281,1.61398.42969,3.3147.40259,4.96255.13043,5.13663-.84833,10.19073-.11432,15.18794-.40802,2.27838-.13397,4.54933-.39429,6.81259-.45789h11.78566c3.03406,0,5.81049-1.70563,7.18192-4.41205l.02641-.05212c4.94084-9.65314,9.62962-19.41901,13.6507-29.49634.12318-.30872.28484-.60107.47392-.87445,3.60181-5.20715,5.18399-11.35919,7.90944-16.98187,3.66632-7.56384,6.82794-15.37061,10.34625-23.00854,1.7074-3.70654,3.85983-7.20752,5.58112-10.90833,1.87167-4.02399,3.45627-8.18066,5.20322-12.26361,2.19101-5.12079,4.42584-10.2229,6.62949-15.33826.91129-2.11548,1.66275-4.31122,2.72186-6.34827.9823-1.88947,2.27765-3.61609,3.66876-5.7774.44923-3.49194,2.01076-6.87051,3.82945-10.21719,1.1739-2.16016,2.97369-5.75797,4.04855-7.96909,3.48157-7.16202,6.98456-14.31375,10.44341-21.48669,1.62923-3.37878,3.20079-6.78577,4.76662-10.19458,3.75922-8.18396,7.51892-16.36786,11.24268-24.56793,4.43115-9.75793,8.53958-19.6756,13.33432-29.25049,3.24655-6.48315,6.03964-13.15857,9.21274-19.66519,1.68875-3.46292,3.00208-7.09454,4.67188-10.57806,1.21628-2.53741,3.1188-6.42587,4.29517-8.98203,2.90228-6.30643,5.84698-12.59378,8.7226-18.91257,3.19641-7.02353,6.31696-14.08191,9.55893-21.08423,1.60754-3.47211,3.41391-6.85223,5.18793-10.38879-.29849-.61337-.4407-1.33331-.87613-1.73676-7.78183-7.21011-14.82822-15.14948-22.42462-22.54538-7.52234-7.32379-14.99615-14.70776-22.21994-22.32278-2.91238-3.07016-5.10373-6.82437-7.66855-10.32919,3.33871-2.50375,6.66446-2.21216,9.88318-1.4025,2.69427.67776,5.50873,1.48532,7.82483,2.94275,6.40741,4.03195,13.78333,6.32272,19.74176,11.15976.87234.70819,2.35757.74902,3.58408.91782,4.67194.64282,8.86212,2.34119,12.59711,5.25903,2.59314,2.02585,5.32404,3.87531,8.58786,6.23297-.70731-1.2092-1.01352-1.99759-1.54022-2.58994-3.27222-3.67993-7.37277-6.88629-9.68738-11.08319-2.47723-4.49182-6.57867-7.40182-9.17737-11.66208-1.49377-2.44888-4.78653-3.46033-6.09195-6.29315-.27335-.59312-.55679-1.18156-.8678-1.82031-.49005-1.00641.16232-2.19539,1.27472-2.32005l1.26831-.14214c1.15738-.12944,1.83813-1.36589,1.3306-2.41408l-1.11191-1.64699c-1.66049-1.71172-1.87094-.93799-2.77835-3.37186-.14288-.38321.22876-.76059.61786-.6346,2.21729.71797,2.55096.91753,4.96051,2.09534,1.6004.78229,2.9155,1.87517,4.58377,1.81895,4.44501-.14981,7.40976,2.39944,10.48688,4.89627,6.04147,4.90216,12.29294,9.56131,17.51523,15.4071.68704.76904,1.85794,1.1058,3.12744,1.82581,16.22992-35.12527,33.02737-69.54413,46.95352-105.61282-.31772-1.28317-.70706-2.85559-.97986-3.95724,2.38855-2.77728,4.90503-4.99942,6.49536-7.75583,1.5076-2.61295,2.04468-5.78577,3.36304-9.78867-.39438-3.65509.65164-8.05534,4.11618-11.57657-1.66559-7.53093-3.42807-14.84824-4.86856-22.22841-1.06741-5.46907-1.71631-11.01984-2.07703-16.65372-1.00717-2.07812-2.01431-4.15623-3.17728-6.55583.98184-6.74152-1.15219-13.39453-2.5524-20.16418-.96179-4.65021-1.56491-9.37405-2.36008-14.0596-.27298-1.60876-.67203-3.19588-.95984-4.80249-.37546-2.09607-.6879-4.20335-1.0451-6.3028-.45889-2.69728-1.96182-12.39344-2.52713-15.6439.93903.4975,1.93018.6828,2.13467,1.18709,1.16498,2.87248,3.53503,9.94451,3.95432,12.95383.39944,2.86719.58759,5.72633,1.62106,8.46283.21814.57757.37375,1.17596.42508,1.79121.65509,7.85317,3.12479,15.35401,4.45917,23.07509.71503,4.13727,1.52362,8.25836,2.76056,12.36269.12268-2.20641.36215-1.60172.51276-4.31001.4957-.35759,1.37253-.9901,2.62256-1.89178,1.75528,1.72591,3.36145,3.30522,5.33499,5.24573-.84528-5.96268-1.6539-11.66696-2.50388-17.66287,1.87354.30888,3.07364,1.51579,3.4093,3.36752.86444,4.76845,3.72058,9.06203,3.34082,14.13135-.0285.38034.51611.80359,1.00775,1.51631,1.25793-4.44838-.61035-8.71413,1.3811-12.71541,1.17896-.16824,2.2923-.3271,3.19818-.45638.51941.3029.89734.40228,1.07892.64723,3.12646,4.21724,5.56464,8.9194,9.10742,12.85182.51819.57518.73871,1.47578.94495,2.26552,1.36041,5.20959,2.63013,10.44337,4.03912,15.63953.47009,1.73376,1.26202,3.38026,1.6759,4.46255.33582,3.39545.61029,6.17043.97632,9.87061-.53503,1.20857-1.45673,3.29063-2.68176,6.05792v4.25299c-.63947,1.34259-1.27869,2.68472-2,4.19911v6.80289c-.65649,1.38605-1.29279,2.72946-2.21033,4.66678,1.19684,11.64496,3.08331,23.68463,7.60101,35.19812.33679.36731.61633.82016,1.0188,1.08914,6.77863,4.53018,8.19904,11.89212,10.08124,19.01102.19934.75381.16614,1.67508.60089,2.2431,2.35278,3.07419,4.06732,6.51614,5.45349,10.06244,1.78638,4.57007,2.90118,9.34216,3.51276,14.25711.47461,3.81445,1.53729,7.55411,2.30127,11.33453,1.55573,7.69785,3.08234,15.40161,4.63312,23.10046.16125.80038.41217,1.58234.6095,2.37582,1.73853,6.99023,3.81042,13.90323,4.45355,21.13577.14203,1.59738,1.10291,3.10684,1.39703,4.70993.31458,1.71393.28644,3.49072.4696,6.12805,1.63281,5.63779,4.08459,12.09616,3.83276,19.92316-.12445-.17035.2652.36304.91077,1.24683-.15723.35199-.37299.91641-.65674,1.44424-.22314.41516-.53021.78522-.79889,1.17365-2.67291-.34787-3.06433-2.87964-4.37823-4.31699-1.55029-.82971-3.00092-1.60602-4.08014-2.18356-3.43097-7.16397-5.37512-14.53009-9.61621-20.93872v4.71506c1.0426,2.24484,3.07434,4.63779.85181,7.6456.64117.97903,1.25818,1.92123,1.88885,2.88431-.26898.79358-.52856,1.55936-.77985,2.30084.65845,1.38748,1.29272,2.72412,1.49023,3.14032.4696,3.92191.82056,6.85272,1.21814,10.1734-.39862.41745-1.04346,1.09277-1.69629,1.77646-6.22778-3.02396-9.06897-8.22287-10.33063-14.37918-.81909-3.99649-3.09906-7.5072-3.55249-11.60498-.04553-.41119-.93915-.72855-2.05103-1.53113-.07153,2.24466-.42676,3.89975-.12164,5.42249,1.50146,7.49399,1.90277,15.21472,4.2934,22.50909.93787,2.86206.39685,5.52228.54645,7.82196-1.65668,2.04099-3.21881,1.90942-5.16571,1.1835-.84369-2.76929-4.89185-4.4292-3.41492-7.95706-1.11078-4.50375-2.04431-8.64011-3.15948-12.7269-1.63562-5.99426-3.60181-11.88919-4.5661-18.0683-.73004-4.67798-1.8324-9.30096-2.85541-13.92932-1.27045-5.74786-2.65918-11.46954-3.93268-17.2168-.3703-1.67154-.44861-3.40622-.78491-5.08716-1.25226-6.25919-2.61395-12.49692-3.81659-18.76538-.61725-3.21729-.90131-6.49768-1.48663-9.7222-.73029-4.0231-1.61792-8.01764-2.43402-12.02524-.52191-2.56305-.95764-5.14771-1.60065-7.67984-.21301-.8389-.95215-1.54422-1.81976-2.87787-3.01517,6.63135-5.78754,12.67529-8.51385,18.7399-2.68945,5.98254-5.31219,11.99503-8.00116,17.97775-2.77255,6.16898-5.57928,12.3226-8.38995,18.47433-2.74374,6.00537-5.87524,11.86472-8.16702,18.0368-2.33234,6.28125-6.71869,11.70679-7.96255,18.37003,5.80652,5.51312,11.88028,10.31049,16.70859,16.13947,4.74106,5.7236,11.48471,9.55063,15.16498,16.28198-5.59937-1.97852-9.34995-7.22409-15.50381-8.0246,1.29889,2.10321,2.14417,4.17737,4.27066,5.80841,3.57852,2.74481,6.47672,6.37662,10.26532,10.25363,6.46454.41843,11.49185,5.27975,16.87277,9.56647,3.86389,3.07816,6.42667,6.98148,10.20273,10.15872,2.98996,2.5159,17.46555,16.4093,16.20001,17.86667-.14661.16882-1.57855.89767-1.79999.86667-9.32544-1.30539-16.67288-13.67499-22.48889-14.02222-2.86957,3.48413,8.46036,18.69147,5.76083,23.7384-.0932.17422-.19482.3439-.30402.50974-2.15186,3.26788-6.77155,3.8186-9.82571,1.37289-.76108-.60947-1.4971-1.24207-2.18692-1.92157-4.6062-4.53741-9.00867-9.28189-13.48523-13.95059-1.72556-1.79962-3.5051-3.55621-5.11459-5.45569-1.34534-1.58777-2.47879-3.3551-4.35272-5.93228-3.48264-1.66522-7.44394-4.56165-10.93097-8.19873-1.55988-1.62692-3.71301-2.68509-6.00812-4.2887-.91998.97882-1.69092,1.79904-2.31659,2.46472.36404,4.57834,3.47937,6.86111,6.27274,9.01492,2.61191,2.01389,4.98953,4.17468,7.30634,6.49557,1.85284,1.85623,4.11115,3.30856,6.19513,4.93289.90631.70633,1.9686,1.26825,2.71841,2.11081,6.0238,6.76901,13.37335,12.07825,19.93295,18.2511,1.66266,1.56464,2.95276,3.52509,4.3703,5.25043-.01166,5.0899-.58844,6.2735-4.57257,8.89465-2.18823-1.66132-4.71838-3.22107-6.79712-5.24463-3.14743-3.06384-5.90027-6.52917-8.97766-9.6702-1.83914-1.8772-4.06714-3.36829-5.96252-5.19656-3.7179-3.58615-7.25815-7.35776-11.00699-10.91006-1.89383-1.79453-4.08258-3.27771-6.05597-4.98376-2.18845-1.92599-4.49707-3.73398-6.5343-5.8085-2.35486-2.39801-4.3746-5.12894-6.74362-7.50864-1.57465-1.58173-3.42554-2.86465-5.4176-3.87112-2.92773-1.47922-6.0256-2.61801-9.46512-4.07565-4.11899,9.01312-8.21494,17.97498-12.31015,26.93723-2.12537,4.65128-4.23694,9.3089-6.37671,13.95355-3.79706,8.24182-7.45547,16.5528-11.47849,24.68317-2.25449,4.55621-5.12439,8.80798-7.9729,13.63013-.03558.61749-.10233,1.776-.15491,2.68811-2.43655,4.31494-4.66922,8.46515-6.02985,13.03467-.27994.94019-.60272,1.99585-1.24545,2.67841-3.51373,3.73132-4.68015,8.73212-6.30847,13.21033-2.32138,6.38422-5.02686,12.52795-8.11319,18.51947-3.76816,7.31506-6.32504,15.1333-10.0014,22.78638-5.54224,4.6535-4.9277,12.24902-8.26675,18.88947,1.37689-.35895,2.242-.36365,2.82367-.77203,3.63095-2.54962,7.23526-5.14081,10.77689-7.81293,3.5531-2.68091,7.0491-5.43964,10.51379-8.23413,1.11099-.89606,1.97208-2.1004,3.07605-3.00726,1.10965-.91144,2.32138-1.73798,3.59088-2.40729,2.73676-1.44287,5.77274-2.23199,7.41272-5.43292.73798-1.44043,2.64029-2.82294,4.24207-3.16486,2.90295-.61975,4.41708-2.60565,6.14899-4.54773,1.91586-2.14844,3.93439-4.15787,6.71298-4.85391.97906-.24524,1.88248-.72723,2.54227-1.49103l.19931-.23071c1.37646-1.59344,3.1745-2.71939,5.12711-3.50742,1.60101-.64612,3.04837-1.82996,4.46109-3.04602,2.17615-1.87311,4.67569-2.9248,7.39902-3.78473,1.96225-.61963,3.73981-1.93207,5.48776-3.10278,5.73682-3.84241,10.57828-8.88818,16.81802-12.10748,3.03094-1.56378,5.60538-4.01343,8.38266-6.06714.66422-.49115,1.2764-1.36993,1.97552-1.43976,2.55511-.25513,3.54999-2.18628,4.19952-3.17224,3.89252-2.58704,7.03494-4.68738,10.18958-6.76929,3.84283-2.53613,7.7659-4.95764,11.52316-7.6142,3.22156-2.27789,6.27759-4.79315,9.35654-7.26599.46649-.37469.65955-1.0899,1.2392-2.10175-16.62646-17.52606-35.02896-33.25204-52.01202-51.45175,1.50723-.30261,2.48001-.82651,3.12311-.55869,1.3447.56,2.67899,1.36606,3.73206,2.37045,9.18558,8.76102,18.29071,17.60626,27.45496,26.38974,6.54288,6.27094,13.12625,12.49994,19.73059,18.70599.8269.77704,1.89288,1.29968,2.94446,2.00482,4.53601-1.81396,7.70978-5.52075,11.61407-8.16595,3.40228-2.30511,6.49713-4.99609,10.01202-7.20422,5.42322-3.40692,10.45172-7.46136,15.51001-11.41711,1.33838-1.04663,2.17303-2.73749,3.69263-4.72623,5.2439-1.60101,10.54547-4.77118,15.68689-8.4097,5.90057-4.17575,12.12939-7.8877,18.21661-11.79965,5.94946-3.82336,12.48975-6.98581,17.69385-11.64197,5.86993-5.25195,13.00281-8.42847,18.99109-13.38745,3.36206-2.78415,7.3736-4.85043,11.26587-6.9129,6.42413-3.4039,11.81604-8.24036,17.75201-12.31512,5.69727-3.91083,11.4444-7.74994,17.10425-11.71399,4.4433-3.112,8.77728-6.37964,13.17828-9.55258,2.40186-1.7316,4.77478-3.51657,7.27667-5.09366,9.8905-6.23456,19.10083-13.44055,28.74072-20.03391,7.33392-5.01611,14.40662-10.41241,21.6839-15.51355,7.54675-5.29004,15.19073-10.44183,22.81097-15.62656,3.11133-2.11688,6.27173-4.16153,9.57202-6.34647.96838.84241,1.81818,1.5817,3.08002,2.67944-1.20978,1.59723-2.18396,3.29117-3.5351,4.59424-5.01532,4.83719-10.27441,9.42612-15.1969,14.35321-2.42505,2.42731-4.31384,5.39041-6.64313,8.36362-1.01923.52542-2.34137,1.207-3.66345,1.88858.10736.13159.21472.26318.32208.39474-2.06415,1.81293-4.02063,3.76959-6.21295,5.41132-6.05768,4.53629-11.97046,9.33539-18.39166,13.29996-8.41229,5.19385-15.99774,11.46347-23.9859,17.20261-2.13843,1.53641-3.85602,3.65909-5.99628,5.19223-5.31445,3.80667-10.78833,7.38974-16.14868,11.13339-9.04218,6.31506-18.0769,12.64182-27.04871,19.05597-2.95081,2.10962-5.61743,4.61557-8.55737,6.742-3.73279,2.69983-7.58765,5.23404-11.43237,7.77518-7.40161,4.89197-15.13623,9.34409-22.15234,14.73419-5.20453,3.99841-10.86798,7.31775-15.9314,11.49344-1.86066,1.53455-4.0799,2.63443-6.2417,3.70239-1.28491,1.20822-2.4613,2.56467-3.87384,3.59839-5.43677,3.9787-10.96252,7.8356-16.42804,11.77536-3.20654,2.31128-6.29999,4.78473-9.56714,7.00439-1.60706,1.09192-3.49341,1.77271-5.67871,2.84906-6.76898,7.07837-16.9743,12.60706-25.04144,18.54892,1.57419,3.1637,1.58261,4.08853.7543,4.63779-.82706.54846-1.91693.5022-2.78268.01706l-2.00641-1.12436c-2.55035.8515-5.07202,1.9386-7.11835,4.00861-2.07181,2.09586-4.52747,3.51163-7.39886,4.49243-2.52011.86081-4.72052,2.48663-6.36487,4.58142-.97116,1.23718-2.22437,2.22949-3.6604,2.88782l-2.54779,1.16806c-2.0184.92535-3.79764,2.30652-5.18033,4.04385-2.34344,2.94455-5.97476,4.35013-9.67245,5.76242-.87857.33557-1.69009.8208-2.40112,1.43637-5.20996,4.51059-10.44247,9.10397-15.78857,13.5611-1.21573,1.01355-2.91278,1.44244-4.37216,2.17242-3.97195,1.987-8.69153,3.01416-11.37991,6.79767-3.34802,4.71179-8.37109,7.20142-12.72162,10.54541-4.68744,3.60297-9.85693,6.57275-14.69919,9.98474-1.14764.80865-1.99207,2.18964-2.69278,3.4632-1.89832,3.45007-4.10391,6.47986-6.94571,9.36884-2.73056,2.77582-5.2886,6.51056-5.68161,11.76642,10.65408-6.60541,22.44025-15.47766,33.75299-21.50336.1962-.10449.39609.13998.25421.3111-1.86118,2.24518-6.03055,7.71674-7.10229,8.42099-7.15643,4.70276-11.01431,8.28113-18.02582,13.18042-2.92099,2.04102-5.6308,4.38257-8.46307,6.55292-2.79388,2.14081-5.00693,2.78333-6.12866,5.79523-.9671,2.59662-2.22348,4.71619-4.13986,6.61328-3.76907,3.73108-7.66693,7.25873-12.42386,9.74622-2.09879,1.0976-3.09891,2.71228-4.19077,5.66669-3.08829,2.12213-5.94107,4.39392-9.07385,6.17249-7.31851,4.15509-14.8371,7.84937-23.89767,6.96698-1.09628-.91229-2.34198-1.94891-4.15442-3.45721-.436.77594-.93066,1.31818-1.05756,1.93591-.96582,4.70239-3.31323,8.86047-5.21133,13.18182-1.53751,3.50037-2.61029,7.10297-5.59546,10.08893-2.09189,2.09247-2.44672,5.95734-3.4794,9.06329-1.13635,3.41766-2.00885,6.9469-4.71249,9.56512-.97879,6.78693-5.42023,12.22717-7.47604,18.94623,4.32336,1.00281,8.40771.33588,12.34897.47198,2.52081-1.99329,2.60068-4.6795,2.6796-7.0614,6.08548-8.70221,9.52921-18.3916,13.5769-28.67767,1.13074,1.61749,1.7341,2.48059,2.2146,3.16797-4.74847,10.66089-9.38724,21.07544-13.92459,31.26239,2.3363.40802,4.91364.87878,7.49969,1.29529.65088.1048,1.39615.22412,1.98535.01672,4.86139-1.71136,9.88245-.77881,14.82632-.91748,6.2569-.1756,12.60983.57318,18.76294-.25446,10.95798-1.47388,21.961.26782,32.81039-.94916,10.47055-1.17444,20.95972.146,31.31091-1.00439,10.14203-1.12714,20.29813.10522,30.32654-.9859,10.96591-1.19312,21.96091.11798,32.81464-1.03528,9.14517-.97174,18.29898.11792,27.31735-.95715,11.12842-1.3266,22.22754-.44556,33.32764-.88477,1.28461-.05072,2.55737-.76862,3.82727-.74408,3.05634.05914,5.96069-1.31189,9.18445-.37061,1.9104.55774,4.21765-.24323,6.34644-.43365,1.47583-.13208,2.95105-.37152,4.42761-.37964,8.16614-.04486,16.33282-.00433,24.4989-.05621,3.12567-.01984,6.20557-.22766,9.34479-.73297,3.09235-.49786,6.49091.0578,9.68536-.31104,10.75537-1.24182,21.59369-.23773,32.29669-1.16376,7.4743-.64673,14.89972-.4483,22.3396-.79187,1.29315-.05975,2.57776-.30615,3.85565-.36548,12.08441.32788,24.12903-.8988,36.28864-1.68542,1.41492-.6347,2.91583-1.30804,3.83551-1.72058,4.36835.38782,8.13379.72211,11.89923,1.0564-.01135-.17322-.02271-.3465-.034-.51971,2.50049-.73877,5.00098-1.47748,7.62885-2.25385-.87213-2.39661-3.06317-3.87335-5.1073-5.65375-5.33649-4.64819-10.362-9.65131-15.59113-14.42572-1.93347-1.76526-4.08948-3.28687-5.59247-4.48138-10.97278-10.49359-21.46075-20.5235-31.83044-30.44037-9.73651,4.66095-16.96625,12.61713-26.92401,16.13184,7.00513-7.30225,15.76508-12.39795,23.72638-18.85138-2.9198-2.63129-4.87976-5.8324-8.40216-7.17944-7.27924,5.17413-14.56635,10.26019-21.7514,15.48645-7.85187,5.71143-15.58844,11.58124-23.42621,17.31232-1.51373,1.10687-3.10779,2.62561-5.51959,1.11005,1.00238-2.48486,2.93005-4.02985,4.93311-5.41913,7.16779-4.9718,14.40442-9.84424,21.58258-14.80121,4.33545-2.99396,8.58533-6.11182,12.922-9.104,3.09937-2.13855,6.27887-4.16095,9.68213-6.40643-1.68011-1.58313-3.11047-2.93097-4.63666-4.36908-7.91559,3.58777-14.67877,9.11639-21.88501,13.9458-2.73151,1.83063-5.48004,3.64764-8.32715,5.28613-.78351.45099-1.95032.23602-3.65869.39215,4.53613-5.71698,10.2489-8.41321,15.31329-11.92853,4.32361-3.00116,8.81793-5.75562,13.18744-8.69257.77454-.52063,1.30737-1.40088,2.54773-2.77539-1.63037,0-2.6123-.2865-3.26868.0542-1.89227.98206-3.66919,2.19257-5.46301,3.35706-5.98059,3.88269-11.59778,8.35736-18.29407,11.49487-1.05933.49634-2.26331.59241-3.37585.23083h0c-.84808-.27557-1.77533-.23322-2.58264.14551-2.13196,1.00018-3.57971,3.00439-5.35126,4.72522-.95752.93011-2.25366,1.43054-3.58856,1.43042h-.04053c-1.47119-.00018-2.84662-.72986-3.67169-1.94794l-.02197-.03241c-1.22797-1.81281-1.09058-4.22327.33533-5.88489l.07581-.08838c1.63873-1.90961,4.02966-3.00842,6.54602-3.00842h0c1.64203-1.08643,3.01514-1.995,4.08252-2.70117,3.03052-2.9613,2.09991-3.86005,5.65973-6.52155l5.48193-3.78979c3.08875-2.73059,5.92584-5.23865,8.88727-7.85675-.1333-.57019-.06598-1.48248-.46082-1.77838-2.82935-2.12134-3.7652-5.81793-6.65393-7.86462-.40228-.28503-.83734-.6358-1.04803-1.06-.95935-1.9317-5.05432-.44202-4.41467-4.06836-1.74933-1.51233-3.50537-3.01691-5.24597-4.53925-1.42511-1.24646-2.83191-2.51404-4.40479-3.91266,1.18036-1.25287,1.95941-2.07977,2.76239-2.93219.57117.13849,1.10229.13977,1.47839.38184,1.2428.7995,2.50916,1.59393,3.62256,2.55676,3.12695,2.70398,6.18732,5.48511,9.26099,8.25024.61853.5564,1.37103,1.07788,1.73541,1.78381,1.83087,3.54718,5.42511,5.19495,8.02325,7.85797h5.48273c2.07605-1.19421,4.82465-1.81415,6.50452-4.46478.69629-1.09869,2.46539-1.6084,3.83453-2.17236,3.74768-1.54358,6.97986-3.75372,9.63513-6.83258.88348-1.02432,1.81683-2.00714,2.79858-2.43256,1.53552-.66541,3.04773-1.38327,4.35596-2.42682l8.11896-6.47623c1.5296-1.22012,3.26855-2.15161,5.13184-2.7489l.70679-.22656c1.1861-.38022,2.19971-1.16724,2.86194-2.22217l.19421-.30939c.46796-.74545,1.22754-1.25998,2.09332-1.41806l.7312-.13348c.32062-.05853.56207-.14307.78448-.26324,9.09021-4.9118,16.60815-10.83063,24.4472-16.29047,7.79449-5.42883,15.83923-10.48657,23.00977-16.72736,1.85126-1.02679,3.74988-1.97748,5.5448-3.09467,5.1579-3.21045,10.53632-6.14911,15.31989-9.85126,3.57513-2.76697,7.23041-5.18195,11.31079-7.03741.43762-.19904.96405-.5415,1.12964-.94775,1.64996-4.04694,5.88654-5.1167,8.80096-7.69733.58783-.52051,1.40833-.79523,2.14838-1.12274.90228-.39923,2.14276-.47504,2.69995-1.14044,3.07068-3.66736,7.8786-4.77301,11.31384-7.87927,1.01141-.91458,2.83337-2.15277,4.05652-2.75562,5.83612-2.87656,10.81836-6.97006,15.84875-10.99811,1.24188-.99445,2.37048-2.13031,4.37891-3.95172,2.91724-.86267,6.48059-2.74243,9.39447-5.90979,1.25787-1.36737,3.34357-1.93646,4.92682-3.04822,4.71027-3.30768,9.15649-7.04721,14.09753-9.95193,3.56512-2.09589,6.55853-4.84616,9.95312-7.09329,4.08563-2.70474,8.21289-5.34698,12.28381-8.07346,2.38269-1.59579,4.68884-3.30161,6.9837-5.0213,4.68707-3.51227,10.18182-5.88458,14.26971-10.27621,1.06696-1.14624,2.7804-1.78802,4.30304-2.39453,4.66467-1.85803,8.79773-4.42471,12.15436-8.22137,1.76147-1.9924,3.76947-3.56049,6.46057-4.42203,4.45166-1.42517,8.13983-5.68262,12.27222-6.20505,4.68756-.59262,8.62134-3.62863,11.22803-7.56943,3.1889-4.82092,8.28064-5.34515,12.29553-8.59415,2.52649-2.04446,4.00519-4.00684,4.32526-7.07983h0c.14215-1.33408.90063-2.52634,2.04791-3.22189,1.29651-.78607,2.56781-1.55685,3.89325-2.36047.80945-.49078,1.81519-.53671,2.6651-.11984h0c.97589.47867,1.59436,1.47092,1.59436,2.55789v4.04077c-1.52722,3.95627-5.65723,5.48163-8.90399,7.83218-7.19354,5.20804-14.90936,9.71875-21.91858,15.15067-7.98846,6.19073-16.89075,10.93964-24.93744,16.98782-7.64545,5.74655-15.47467,11.23764-23.49164,16.45337-9.04449,5.88425-17.55865,12.53708-26.42078,18.6871-6.34808,4.40533-12.92419,8.48111-19.29706,12.85184-7.32642,5.0246-14.53595,10.21942-21.80457,15.32855-3.50018,2.46039-7.00092,4.92065-10.53381,7.33356-5.97186,4.07867-11.98254,8.10046-17.95331,12.18066-10.32245,7.05389-20.61932,14.14508-30.94177,21.19891-5.43994,3.71741-10.95197,7.33026-16.35803,11.09564-6.88544,4.79584-13.64954,9.76654-20.55157,14.53796-8.92267,6.16827-17.95874,12.17249-26.8833,18.33807-2.67676,1.84924-5.14417,4.00159-7.46759,6.34967,15.07343-8.64392,29.06708-18.8988,43.42218-28.60529,14.38385-9.72583,28.79865-19.40588,44.08813-29.70422-1.24701,4.04553-4.25311,4.90021-6.25446,6.38007-8.2019,6.06445-16.77136,11.62872-25.12506,17.49176-14.95203,10.49408-29.83405,21.08777-44.77472,31.59808-2.8147,1.98004-5.76636,3.76532-8.91022,5.80621.53387.88391.92395,1.52972,1.4491,2.39923.71271-.26721,1.35016-.37683,1.83649-.70825,5.7085-3.88885,11.92029-6.94525,17.38367-11.29156,5.51947-4.39099,11.6192-8.05347,17.47223-12.02405,5.8606-3.97565,11.7547-7.90253,17.5907-11.91394,8.54755-5.87531,17.05255-11.81262,25.59753-17.69183.31482-.21655.85931-.09955,2.27362-.22375-1.73322,1.67548-2.73273,2.93732-3.99774,3.81769-9.73407,6.77448-19.52948,13.46063-29.28021,20.2113-1.77991,1.23224-3.44275,2.63348-4.96979,4.35876,3.06677-.31195,5.77734-3.14117,8.70715-.48645,10.4679-4.52319,18.9411-11.6955,28.12152-17.74072,2.74438-1.80713,5.47217-3.63989,8.23969-5.41077.61133-.39124,1.35889-.56964,2.27582-.44519-11.61005,9.07501-23.38434,17.84888-35.46539,26.19122-12.04816,8.3197-23.63147,17.35724-37.00885,24.25787.08936-3.31061,3.4433-4.021,5.06036-6.4447-1.45892-1.16144-2.80945-2.23663-4.46832-3.55719-5.63019,2.81787-10.2099,7.09949-15.38599,10.45178,3.49792,6.34766,8.97638,10.20776,15.24219,13.85461,1.71869-.90997,3.68616-1.76593,5.45667-2.92328,5.6474-3.69128,11.25574-7.44482,16.81097-11.27325,3.25195-2.24121,6.35046-4.70398,9.56885-6.99573.96643-.68811,2.104-1.13611,3.38611-1.30688-10.19843,9.40063-22.25281,16.32025-33.41693,25.48102,2.76709,2.26099,5.08612,4.05719,7.29291,5.98212,3.31189,2.88898,6.40991,6.03839,9.84521,8.76697,4.50714,3.5799,8.46765,7.7663,13.48639,10.82428,3.73914,2.27838,6.66284,5.89453,9.95099,8.91345,1.43701,1.31934,2.74103,2.84406,4.35315,3.89563,1.70605,1.11298,2.88086,2.54291,4.19275,4.04669,2.13788,2.45038,4.96582,4.29877,7.50378,6.39978,1.01788.84265,2.07593,1.64069,3.05212,2.52899,5.27179,4.79724,10.54596,9.59241,15.76544,14.44623,1.18591,1.10284,2.15894,2.43457,3.3822,3.83521-.71289,1.12573-1.39075,2.19617-2.17871,3.44049,5.81732,4.81317,11.57764,9.5791,17.39349,14.39105,5.92847,1.12964,11.93311,2.23901,18.0365.64569,6.91528,1.51099,13.91742.54572,20.87115.59558,6.26855.04498,12.53906-.7168,18.81458-.85553,2.8537-.06311,5.71649.6554,8.58484.76337,2.11456.07953,4.24341-.27771,6.36829-.40076,2.3045-.13342,4.89478-.94049,6.85529-.16943,3.43213,1.34979,7.60791.19061,10.55139-1.3938,3.49341.58215,12.91284-1.87878,16.73334.79999-2.4679,1.04486-11.47009,2.58295-13.40002,3.40002-6.88684-.10461-6.46667,3.1333-16.53333,2.46667-2.59998,1.73334-3.20001.20001-6.26666.8667-.80334.17462-1.59998.8667-3.66669.40002-5.20001-1.20001-5.94971.83514-9.98871.79987-1.45166-.0127-2.94464.74713-4.35431.58691-5.06573-.57568-9.38342,1.72797-13.72076,3.58356-2.07544.88788-3.81396,2.42413-6.26959,2.64484-1.02179.09186-1.95801,1.13586-2.80066,1.66388-1.96582.63104-4.20776-.67236-5.47424.94977,2.67645,2.742,3.39404,3.03052,6.74158,6.46008m-60.3913-50.23816c-.98779-1.15747-1.26099-1.59229-1.63733-1.90155-6.11279-5.0224-12.23718-10.0307-18.36279-15.03748-1.01605-.83044-2.03815-1.65417-3.07764-2.4549-3.25836-2.50964-6.5415-4.98737-9.78455-7.51666-1.8537-1.44574-3.86884-2.76886-5.4245-4.49561-3.68268-4.08752-7.42383-8.02625-12.45032-9.85168-1.67755-5.79944-7.24072-6.10309-11.07825-8.92322-.30359-.91174-.66083-1.98456-1.03351-3.10388-1.23322-.61115-2.4043-1.19147-3.49561-1.7323-1.20404.30756-2.25861.57697-3.34253.85382-.10114-.76782-.17047-1.29395-.26227-1.99103-4.55518,1.07953-8.04504,3.74713-11.30951,6.35614-3.24915,2.59674-7.60895,3.96399-9.92932,8.04541,1.96967,1.83148,3.77753,3.51251,5.76709,5.36249,2.43884,6.31616,10.00696,8.59015,13.52966,15.29169-2.44427-.5036-4.28204-.8822-6.21417-1.28027-5.97711-5.54303-11.97211-11.10266-18.08221-16.7691-3.39044,2.95618-7.35382,4.7511-10.89728,7.66058,3.0592,2.61444,5.78015,4.77289,8.31091,7.13507,6.67157,6.22699,13.27386,12.5285,19.87909,18.82629,7.90967,7.54144,15.77643,15.12805,23.7041,22.65039,1.5481,1.46893,3.31903,2.70001,4.93591,4.09998,2.58142,2.23505,5.11975,4.51965,8.22034,7.26508,1.26471-.22571,3.35284,1.18762,5.9762.01245-2.91949-2.86713-5.56592-5.38434-8.09332-8.01581-.5213-.54266-.59924-1.51123-1.07635-2.81659,2.22394.68317,3.75494,1.15338,4.49969,1.38214,4.11182,3.56305,7.61023,6.59454,11.10919,9.62659,2.854.34387,5.63031,1.00507,8.36865.87384,1.4198-.06805,2.69574-.60944,4.18878.06244.82654.37207,1.97253.13904,2.95844.03113,2.27411-.24884,4.54791-.53113,6.80328-.9104,1.43909-.24194,2.85278-.65472,4.25836-1.05878.23938-.06879.38037-.48016.84882-1.11627-.56073-.44611-1.177-.93634-1.92102-1.52826.10266-.43408.24579-1.039.38885-1.64392-1.44727-1.17804-2.36377-2.82471-2.74951-4.94,3.90454,3.29028,7.53363,6.34845,10.81659,9.11499,3.93408.22595,7.37585.42365,11.6709.67035.51154-.12402,1.92334-.46643,3.83795-.93066-3.76392-3.67352-7.41748-7.07098-10.8761-10.65649-4.48608-4.65063-8.85095-9.42029-13.18329-14.21527-.78857-.87274-1.17108-2.11237-2.09381-3.84497,2.32178.521,3.84229.86218,6.30237,1.41425Zm-89.55151-72.80884c-1.08667.90076-2.04816,1.8349-3.13898,2.57977-7.46973,5.10107-14.99005,10.12823-22.44354,15.25281-3.06726,2.10895-6.00934,4.39984-9.26459,6.79657,1.52185,1.65912,2.72394,2.9696,4.02423,4.38721,1.8017-.62616,3.3194-.86902,4.51501-1.62274,3.47607-2.19153,6.83075-4.5766,10.21906-6.90601,5.56079-3.82281,11.09985-7.67743,16.68799-11.45966.38654-.26154,1.104-.03418,1.66754-.03418l.31842.7403c-9.97229,7.0484-19.94464,14.09674-30.3504,21.45142,2.45044,2.29321,4.56744,4.27429,6.6676,6.23969h3.08423c3.22321-2.07153,5.71454-3.65021,8.17322-5.27814.3537-.23413.54944-.70673.80035-1.0448-.87897-1.06525-1.67688-2.03223-2.44434-2.96234,2.68512-3.51599,5.4848.2807,7.034-.31958,8.49438-4.45587,14.94025-10.00452,21.95526-14.94476-2.22815-2.3891-4.04352-4.48645-6.02197-6.41656-2.19031-2.13684-3.98395-5.07001-7.70593-4.08984.13721-.97961.21979-1.56903.33191-2.36914h-4.10907Zm-395.4191,97.84784c.56723-1.46881,1.24069-2.80664,1.60443-4.22406,1.6431-6.40308,4.41031-12.31714,7.59265-18.07031,1.18491-2.14221,2.51968-4.27142,3.24768-6.5766.70517-2.23291,2.36694-4.54156.89642-6.37854.64606-2.79901,1.15103-4.98688,1.56879-6.79669-1.35858-1.66095-2.29614-2.80713-3.11142-3.80383v-3.76392c2.89566-3.26343,4.98462-6.96594,5.7059-11.28058.15289-.91467-.4772-1.96027-.91589-3.56512-1.21506,1.51947-2.14276,2.31177-2.60275,3.31787-2.10733,4.60895-4.146,9.25189-6.09055,13.93195-2.17972,5.24628-5.48834,10.0011-6.79214,15.62701-.07397.31909-.14432.71844-.36441.91223-2.60352,2.29138-3.21652,5.67023-4.44611,8.02374-.44336,2.82336-.79813,5.08234-1.16916,7.44495,1.17795,1.64325,2.44495,3.41071,3.74069,5.21832-2.21729,5.1076-4.44046,10.14813-6.58481,15.22198-.57242,1.35443-.99716,2.78992-1.31827,4.22656-.2988,1.33685-.36917,2.72467-.5401,4.09009l.95233.31165c2.81351-4.52246,5.62701-9.04492,8.62671-13.8667Zm356.3273-76.30133c1.71307-.11664,2.44604.04181,2.93256-.23419,2.7149-1.5401,5.44958-3.06824,8.03064-4.8172,7.31122-4.95398,14.62927-9.90613,21.75751-15.11505,1.54364-1.12805,4.10321-1.48108,4.5542-4.01831-2.33649-1.28973-4.05328-.02222-5.67731,1.0047-3.88,2.45343-7.5603,5.23572-11.51447,7.55597-6.55542,3.84656-12.51062,8.48358-18.37067,13.26837-.46851.38257-.74341,1.00226-1.71246,2.35571Zm150.03357,101.37494c-1.36237,0-2.58771-.26398-3.64398.04675-4.10382,1.20709-8.23218,2.07257-12.53766,1.86304-1.71924-.08368-3.04132.65424-4.65234,2.17529,3.2973.87445,6.02063.61261,8.75159.3244,2.4259-.2561,4.93317-.94623,7.26416-.57166,2.52234.40533,4.64661-.48407,7.71411-.51746-1.30426-1.49548-2.12476-2.43622-2.89587-3.32037Zm22.32764,10.85492c1.99268,0,3.87817-.43286,5.45129.08435,4.0744,1.33966,8.10986.42041,12.32477.61401-1.83612-3.32648-4.79962-4.11926-7.68872-4.68872-3.76233.88367-7.28833,1.71185-11.06458,2.59882.61877.88116.89386,1.27283.97723,1.39154Zm3.34918-8.25232c-4.24487-5.75348-10.69952-6.22327-15.17224-1.54724.80383.53589,1.54736,1.45032,2.3233,1.4787,4.02509.14734,8.05841.06854,12.84894.06854Zm3.06775,16.46387c3.32819,0,6.5838.09003,9.83221-.0246,3.43402-.12115,6.86115-.43701,11.01398-.71649-2.4032-1.78278-4.24524-2.49585-6.51562-2.47174-2.60028.02771-5.25745-.72742-7.79224-.39575-2.44812.32025-5.7757-.13837-6.53833,3.60858Z"/>
  <path class="b" d="m497.23297,299.28837l-.00003-3.198c0-.29657-.10321-.59018-.28238-.82654-4.10828-5.41971-4.74362-8.26633-5.28909-15.7915-.19113-2.63629-1.68161-5.17838-2.69479-7.72839-.1373-.34552-.40616-.62408-.7493-.76727-.38516-.16074-.75867-.31659-1.12827-.47083-1.70013-.70944-2.80603-2.37064-2.80603-4.21283v-2.38406c0-.48776-.17633-.95624-.49963-1.32147l-.01941-.02191c-.87573-.98926-1.26224-2.32507-1.04663-3.63043.20236-1.22513.40646-2.46072.62662-3.79349.08185-.49548-.11359-.99887-.51389-1.30212-.35107-.26598-.76831-.58208-1.24725-.94492-.2453-.18584-.42145-.44994-.49869-.74782-1.37418-5.29874-3.58154-10.67282-3.16959-16.58569.04486-.64407-.00787-1.36902-.26202-1.94815-1.93253-4.40251-1.79773-9.04823-1.70667-13.94272.00598-.32127-.11063-.6315-.3103-.88329-2.52606-3.18565-2.85864-7.28754-3.83514-11.28268-1.85742-7.59909-1.52356-15.48737-3.62018-23.03528-.3587-1.29121-.52759-2.68115-.38031-4.17761.14603-1.48357,2.23157-1.73785,2.65805-.30943.01047.03505.02078.07011.03098.10519.46439,1.59711,2.83267,1.15813,2.66647-.4968-.03806-.37898-.0769-.75774-.11182-1.1356-.27863-3.01523-.99432-6.0105-1.03802-9.02148-.04083-2.8206-.67331-5.35089-2.08942-7.82216-.33905-.59171-.02426-1.3425.63672-1.51039l.02213-.00562c.42624-.10828.88849.06129,1.12976.42999,2.54199,3.88411,3.77875,8.0713,4.88333,12.60692,1.20319,4.94049,1.65765,9.98734,2.94489,14.89731,1.78204,6.79758,3.95569,13.66586,4.36548,20.59824.37335,6.3148,1.80127,12.19786,3.31415,18.20038.59985,2.37996.8074,4.82857.9184,7.28046.13,2.87125,2.00116,5.42947,1.45056,8.3649-.04172.22247-.03723.45241.03183.66797,2.51718,7.85854,3.62384,16.0442,5.35733,24.07536,1.86346,8.63321,2.84875,17.4552,4.25244,26.18912.23303,1.44992.78925,2.85669.93512,4.3096.10397,1.03592-.02328,1.97073-.66095,2.59772-.83554.82156-2.26447.14719-2.26447-1.0246l.00003-.00006Z"/>
  <path class="b" d="m737.13107,811.12953c1.06561-1.12708,2.45428-2.58832,3.8504-2.63446,3.19879-.10577,3.6731-.78528,5.68695.12665l4.15747,2.47687c1.53845,1.24561,2.23724,3.08252,1.89954,4.90631-2.21161,11.94397-14.77271,44.57562-21.98523,59.84235-2.14185,4.53369-7.22626,6.88354-12.08057,5.62756-2.5744-.66608-4.9129-1.32489-5.56592-1.55316-28.78094-10.05975-57.50781-20.27466-86.82635-30.67139-2.02295-.71735-3.62939-2.30029-4.37146-4.31427-2.95032-8.00739-5.89563-16.00134-8.86969-24.07343-1.83374-4.97705-8.21747-6.40723-11.96002-2.64862-8.02289,8.05725-20.15558,18.30542-31.65948,22.48218-1.35779.49298-2.86273.38336-4.13507-.30048l-.00055-.00031c-6.33502-6.99316-6.59222-12.07007-2.45648-18.4245.09796-.15057.21588-.28937.34863-.4104,10.26752-9.35889,25.50793-20.19159,36.26648-29.98975,1.84894-1.6839,2.7384-4.18335,2.34338-6.65277-1.64984-10.31506-3.27856-20.49713-4.8877-30.55676-.33313-2.08264-1.56976-3.91998-3.39404-4.97858-5.69177-3.30286-11.28778-5.34888-17.78864-6.48413-7.28558-1.27203-16.19946-1.98596-20.15204-10.995-.78961-1.79974-.66486-3.87109.2063-5.63281l2.13141-4.3103c1.26532-2.55884,3.91577-4.16052,6.76801-4.04376,16.76501.68604,31.17169,9.99329,46.79938,13.48303,1.62604.3631,3.11755,1.2229,4.12128,2.55267,5.95386,7.88788,2.16028,18.14343,4.12848,27.8241.67542,3.32202,4.88806,4.4118,7.11584,1.85663,7.83124-8.9823,15.20978-17.4455,22.53955-25.85248,2.07684-2.38208,5.46539-3.13086,8.35437-1.84985.43262.19183.84326.38007,1.25024.57599l.14758.07202c2.38727,1.16437,3.90167,3.58795,3.90173,6.24402l.00024,8.20844c.00006,1.6449-.58649,3.22998-1.66058,4.47577-9.38464,10.88428-19.89984,23.07977-31.14502,36.1217-1.52252,1.76581-2.07355,4.16925-1.46106,6.41888,2.26483,8.31824,4.79144,17.59723,7.41339,27.22632.58887,2.1626,2.14307,3.9267,4.20703,4.80035,10.09595,4.27368,20.28699,8.90271,30.80426,12.6051,9.51111,3.34839,18.62079,5.89618,28.26428,9.38641,6.99469,2.53156,15.1264,5.40729,18.23877,1.01324,6.8902-9.72736,8.74902-16.80621,13.37512-28.37146"/>
  <path class="b" d="m675.97208,494.59974c-.87103-.68542-7.41388.62701-8.52338-.24609.94678-1.06519,1.5589-2.08319,2.44928-2.69812,3.78217-2.61176,7.71069-5.01343,11.46582-7.66193,5.10303-3.5993,10.04254-7.43091,15.15228-11.02032,5.11853-3.59552,10.4046-6.95209,15.53595-10.52985,5.79797-4.04266,11.47485-8.25873,17.26233-12.31683,4.31036-3.02228,8.72583-5.89423,13.07147-8.86682,7.04913-4.82172,14.30408-9.37939,21.05823-14.58557,7.7019-5.93677,16.00793-10.97028,23.79779-16.75397,8.19238-6.08264,16.32855-12.2428,24.59344-18.22516,4.93549-3.57245,10.13538-6.77802,15.10223-10.30914,8.58502-6.10345,17.04321-12.38531,25.62579-18.49231,7.90784-5.62677,15.93304-11.08817,23.85895-16.68982,3.62323-2.56076,6.94617-5.59711,10.74329-7.8475,4.07758-2.41666,8.46472-4.39288,12.8996-6.08118,1.58124-.60199,9.69141-2.94531,11.39471-.42401-1.2157.25491-2.20575.51971-3.21307.66458-7.45129,1.07159-13.1084,5.67572-18.99054,9.75601-6.21722,4.31281-12.21417,8.94223-18.40802,13.28995-8.47992,5.95236-17.11572,11.68317-25.5708,17.66986-7.78796,5.51428-15.37146,11.31683-23.14233,16.8559-9.90631,7.06122-19.89575,14.00653-29.87927,20.9588-4.55365,3.17096-9.21161,6.19232-13.76086,9.36932-3.10229,2.1665-6.07886,4.51208-9.14539,6.73102-12.52856,9.06543-25.08154,18.09723-37.60175,27.17426-5.58997,4.05267-11.11066,8.20081-16.68683,12.27277-5.31915,3.8844-10.65363,7.74823-16.00995,11.58124-7.48364,5.35535-14.99377,10.67365-23.07898,16.42493Z"/>
  <path class="b" d="m43.32086,638.12208c1.43896-1.06995,2.59399-1.92883,3.70589-2.75555.36423-.27081.83657-.34174,1.27037-.20819,4.53106,1.39465,8.85716,1.43561,12.35927.24084.18355-.06262.38142-.08777.57454-.06995,3.40125.31317,5.929.67706,8.463.7276,5.32664.10626,10.71416.5202,15.96974-.09924,5.44743-.64209,10.88391-1.151,16.3051-.76337,4.27857.30597,8.64878-.79346,12.87131.31738,1.31266.34534,2.68001.38794,4.03516.31116,4.74493-.26886,9.49998.72046,14.23862.10254.46979-.06128.90158-.41382.40135-.172,5.59613.15619,10.59221.29565,15.99165.44641,1.34407.03754,1.89143,1.74933.81601,2.5564-.19191.14404-.38251.28705-.57309.43011-1.11932.84003-2.511,1.14435-3.90804,1.06177-1.59972-.09448-3.50969.61615-5.34395,1.18127-3.4769,1.07129-6.82278,1.33295-8.87131.52954-.16341-.06409-.33038-.10193-.50591-.10193h-10.35107c.00558-.05389.01115-.10779.01672-.16168-2.60393.21722-5.21149.3988-7.81073.66241-2.27719.23096-4.54468.55707-6.81731.83423-.49362.06024-1.00278.18359-1.48451.12128-5.45764-.70599-10.90981.13031-16.3625.0271-5.47148-.10352-10.94551-.51001-16.41019-.39441-4.21971.08936-8.42299.82397-12.64107,1.18396-1.81111.1546-3.68214.34302-5.4529.05957-2.57628-.41229-5.14043-1.08374-7.603-1.94861-.93187-.32727-1.74873-.98199-2.88635-1.84198-.75687-.57214-.75817-1.71051.0032-2.27661v-.00006Z"/>
  <path class="b" d="m448.19525,37.80532c.52045,1.87483,1.03735,3.78264,1.86072,5.53473,1.70471,3.62756,2.44714,7.5251,2.7948,11.39841.26819,2.98918,1.23517,5.80132,1.54724,8.66277.45721,4.19147,2.26569,8.24124,1.28601,12.66374-.34552,1.55944.25742,3.32898.6301,5.39566.08719.48351.00479.97954-.24832,1.40064-.00537.00896-.0108.01796-.01624.02702-.76715,1.2763-2.61542,1.2963-3.40683.03491-.39124-.62356-.76462-1.21867-1.14081-1.81825-.13846-.22068-.31799-.41182-.52997-.56325-1.72964-1.23548-3.50677-2.50491-5.11734-3.65534-.3869-.27637-.66733-.6783-.78012-1.14019-.93884-3.84435-.9895-7.64595-2.16946-11.13356-.53583-1.58378-.85495-3.22842-.9093-4.8995-.13614-4.18567-1.67801-8.16007-2.32178-12.26972-.37891-2.41957-.75146-4.85181-.88672-7.29164-.03256-.58713.26074-1.19233.60748-1.92645.33029-.69929,1.03439-1.14959,1.80777-1.14959h5.30527"/>
  <path class="b" d="m841.21079,806.89051c-5.79028-2.25342-12.3288.47296-14.80695,6.17065-3.44562,7.92206-6.66864,15.30743-9.63831,22.79333-6.76172,17.04492-16.7099,45.54456-23.56085,62.55237-.69421,1.72339-1.88208,3.24786-3.06366,4.58356-2.25031,2.54376-5.5368,4.12158-8.922,3.84827-3.94391-.31842-6.46533-2.63-8.22705-6.64276-1.20691-2.74902-1.19171-5.88031-.09668-8.67578,6.07269-15.50256,22.24591-58.67413,40.79114-106.01666,1.96637-5.01984,7.15912-8.15393,12.47284-7.24298,1.9046.32654,3.83362.95111,5.84076,1.84174,10.04242,4.45508,20.4671,8.0722,30.82074,11.79254,4.89246,1.758,9.58002,3.65118,12.9873,7.71692,1.25189,1.49384,2.11072,3.33472,2.34827,5.26923.302,2.45966-.18237,4.56128-1.29504,6.41034-2.74994,4.56989-8.69836,6.08813-13.6687,4.15387-7.03021-2.7359-14.26727-5.55237-21.98175-8.55457l-.00006-.00006Z"/>
  <path class="b" d="m583.73685,318.23973c2.17957-1.63132,4.24725-3.44534,6.55872-4.86136,8.5769-5.25424,16.33002-11.63242,24.34106-17.6546,4.8645-3.65686,9.3927-7.77509,14.35858-11.27997,9.79803-6.91528,19.89307-13.41003,29.6825-20.33698,9.65906-6.83475,19.07751-14.009,28.63788-20.98459,1.80914-1.32001,3.76129-2.47089,6.75055-3.04645-.66656,1.85934-1.12646,3.14218-1.34827,3.7608-10.39282,7.35129-20.25928,14.18423-29.96667,21.23618-10.50928,7.63446-20.78625,15.58975-31.3313,23.17319-5.19312,3.73459-10.84015,6.83124-16.14191,10.423-6.94629,4.70581-13.73828,9.63858-20.62976,14.42612-2.69342,1.87115-5.44641,3.66226-8.24133,5.3772-.64838.3978-1.57935.33484-2.38031.48389-.09656-.2388-.19318-.4776-.28973-.71643Z"/>
  <path class="b" d="m374.93048,473.28883c-.82977-.88428,7.4147-9.72101,6.9122-10.25653,3.98309-3.45807,7.69507-6.68274,11.4097-9.90424.75101-.65137,1.46216-1.36371,2.27676-1.92432,4.84903-3.33716,9.72598-6.63373,14.58792-9.95209,6.90375-4.71198,13.80585-9.42645,20.70251-14.1488,4.34113-2.9726,8.67334-5.96979,12.94568-9.02344,5.17932-3.70197,9.4563-8.80182,15.76685-10.98779,1.94037-.67218,3.55487-2.31879,5.28046-3.57172,7.45349-5.41223,14.9046-10.828,22.32642-16.28345,1.30957-.96259,2.55841-1.91217,5.08966-2.08917-1.15051,1.29108-10.34027,10.48199-11.06418,10.99878-8.82751,6.30225-17.93854,12.23846-26.46802,18.9184-8.55841,6.70258-17.7486,12.62305-25.59674,20.22504-.35791.34674-.68536.78168-1.11676.98724-5.69275,2.71155-10.22534,6.94781-15.06519,10.87585-6.37198,5.17157-13.34192,9.61517-20.12808,14.26483-5.68582,3.89569-11.47681,7.638-17.85916,11.8714h-.00003Z"/>
  <path class="b" d="m767.18442,763.13081h1.77246c3.85809,0,7.38019,2.17651,9.1366,5.61163,1.21686,2.37988,1.88928,4.25732,2.07526,7.60522,1.39325,20.19403,1.67041,51.5907,5.89935,69.83374.0874.37708.12817.76495.14178,1.19556.08905,2.81812-1.14301,5.51837-3.18774,7.45972l-.34326.32593c-4.09967,3.89227-10.68536,3.82135-14.47906-.36969-2.28088-2.51978-3.53723-5.65955-4.34283-8.72369-3.07477-23.31366-5.8205-52.12543-7.02948-71.46082-.07269-1.16266.08441-2.33966.367-3.53607,1.09601-4.64081,5.2215-7.94147,9.98999-7.94147l-.00006-.00006Z"/>
  <path class="b" d="m263.58991,574.34828c3.81723-6.42523,9.38791-10.39612,15.36224-13.78088,4.42682-2.508,9.15817-4.43915,13.01917-7.92584,1.10339-.99646,2.65952-2.00299,4.81201-1.13672-.18286,2.4881-1.27646,4.48669-3.37033,5.5257-3.59613,1.7843-6.07053,4.88544-8.93454,7.43628-4.45261,3.96564-9.31049,7.29327-14.17853,10.63513-2.78528,1.91205-3.77954,1.67474-6.71002-.75366Z"/>
  <path class="b" d="m815.5903,905.03382c2.74036-8.2121,5.48071-16.42426,9.00769-26.99371.60815-1.82257,1.78894-3.41583,3.36072-4.52094l3.83051-2.69318c2.88031-2.02509,6.68579-2.1712,9.71637-.37891,2.06036,1.21851,2.91498,1.7746,4.43121,2.6712.92285.99292,2.27002,2.53387,2.65039,3.30139,1.46326,2.95239,1.11597,3.19287-.60956,8.5896-3.66333,11.45721-8.25781,22.16821-12.23273,33.29718h0c-1.23181,3.39404-4.52484,5.58105-8.13354,5.46094-5.41559-.18024-6.96381-.854-10.52618-4.44464-1.63928-1.65228-2.56207-3.90277-2.56207-6.23029"/>
  <path class="b" d="m723.15616,792.81629c.05566,3.94464-1.68024,6.42456-6.48572,8.14343-18.27893,1.36926-39.8515-5.09912-49.76978-14.8573-2.18384-3.44598-2.58685-4.99591,0-10.53265,4.07794-5.93292,8.88464-6.414,14.83075-4.67511,9.61908,2.81287,19.2879,5.52618,28.71539,8.89758,5.59222,2,11.11078,4.8205,12.70935,13.02405Z"/>
  <path class="b" d="m657.31918,813.49867c.24139-1.7865.80719-3.31067,1.6615-4.62921,2.75238-4.24811,8.38141-5.50079,13.07758-3.61188,9.77002,3.92963,20.5351,5.93085,29.85236,11.30878,3.43121,1.98047,5.56067,5.63562,5.56067,9.59741v.01685c0,4.59558-2.81403,8.81097-7.15381,10.32288-1.73572.60468-3.41705.92737-4.88434.50562-11.93262-3.43018-24.57935-5.83282-34.41663-14.19373-2.68799-2.28455-4.16974-5.8208-3.69739-9.31671h.00006Z"/>
  <path class="b" d="m829.76822,372.01356c-3.57379,2.87921-7.039,5.90735-10.74268,8.6084-9.29376,6.77789-18.66833,13.44611-28.06549,20.08051-4.55054,3.21271-9.09442,6.47241-15.40332,9.08948,1.04517-1.56287,1.36615-2.38788,1.96332-2.87305,2.04102-1.65833,4.09143-3.33313,6.297-4.75562,6.07355-3.91705,12.05219-7.94397,17.84772-12.28235,6.43427-4.81641,13.22845-9.15173,19.86255-13.70142,2.49969-1.71429,4.99005-3.4422,7.48468-5.16394.25208.33264.50415.66534.75623.99799Z"/>
</svg>